<?xml version="1.0" encoding="UTF-8"?>
<!DOCTYPE svg PUBLIC "-//W3C//DTD SVG 1.1//EN" "http://www.w3.org/Graphics/SVG/1.1/DTD/svg11.dtd">
<svg xmlns="http://www.w3.org/2000/svg" version="1.1" width="500px" height="162px" style="shape-rendering:geometricPrecision; text-rendering:geometricPrecision; image-rendering:optimizeQuality; fill-rule:evenodd; clip-rule:evenodd" xmlns:xlink="http://www.w3.org/1999/xlink">
<g><path style="opacity:1" fill="#fdfdfd" d="M -0.5,-0.5 C 166.167,-0.5 332.833,-0.5 499.5,-0.5C 499.5,53.5 499.5,107.5 499.5,161.5C 332.833,161.5 166.167,161.5 -0.5,161.5C -0.5,107.5 -0.5,53.5 -0.5,-0.5 Z"/></g>
<g><path style="opacity:1" fill="#f6f6f6" d="M 258.5,91.5 C 256.495,92.1236 254.828,91.2903 253.5,89C 247.516,87.6845 243.35,84.1845 241,78.5C 240.667,62.5 240.333,46.5 240,30.5C 239.674,25.8543 238.34,21.5209 236,17.5C 235.617,18.056 235.117,18.3893 234.5,18.5C 234.768,16.901 234.434,15.5676 233.5,14.5C 227.69,13.5104 221.69,13.1771 215.5,13.5C 221.319,12.6724 227.319,12.1724 233.5,12C 225.987,10.0824 218.487,10.2491 211,12.5C 195.934,7.60399 180.767,7.27065 165.5,11.5C 154.306,8.80689 142.972,7.97356 131.5,9C 125.967,9.85181 120.801,11.6851 116,14.5C 108.378,11.7103 100.211,9.71026 91.5,8.5C 84.1674,8.66879 77.5008,10.8355 71.5,15C 67.3387,15.6672 63.3387,15.1672 59.5,13.5C 53.5,13.5 47.5,13.5 41.5,13.5C 47.3193,12.6724 53.3193,12.1724 59.5,12C 51.7305,9.39758 43.8972,9.23091 36,11.5C 29.8283,9.82958 23.6617,9.66291 17.5,11C 11.8639,13.308 8.36389,17.4747 7,23.5C 5.38227,48.1251 5.04893,72.7918 6,97.5C 7.06068,109.227 13.394,115.561 25,116.5C 29.8297,115.525 34.4964,114.859 39,114.5C 44.8336,116.226 50.6669,116.393 56.5,115C 59.9984,112.501 63.8318,110.668 68,109.5C 72.8236,111.649 77.6569,113.815 82.5,116C 97.4997,119.779 109.5,115.446 118.5,103C 120.167,102.333 121.833,102.333 123.5,103C 127.063,110.576 132.896,115.076 141,116.5C 143.069,115.736 145.236,115.236 147.5,115C 151.443,112.042 155.61,109.542 160,107.5C 163.401,109.219 166.568,111.386 169.5,114C 178.201,117.319 187.201,118.319 196.5,117C 201.269,115.766 206.103,114.932 211,114.5C 218.596,116.019 226.263,117.019 234,117.5C 240.964,117.908 247.464,116.408 253.5,113C 256.072,110.687 257.739,107.854 258.5,104.5C 258.833,104.5 259.167,104.5 259.5,104.5C 259.5,104.833 259.5,105.167 259.5,105.5C 260.952,106.302 262.618,106.802 264.5,107C 261.493,108.971 259.159,111.638 257.5,115C 251.521,118.771 245.021,120.937 238,121.5C 229.513,121.453 221.013,120.12 212.5,117.5C 204.395,119.235 196.228,120.568 188,121.5C 182.522,120.805 177.022,119.971 171.5,119C 167.287,116.754 163.121,114.588 159,112.5C 149.616,120.263 139.449,121.429 128.5,116C 125.904,113.231 123.237,110.731 120.5,108.5C 104.446,122.917 87.2797,124.584 69,113.5C 64.6998,115.041 60.1998,116.875 55.5,119C 45.6455,118.853 35.8122,119.019 26,119.5C 14.9635,120.436 7.63016,115.77 4,105.5C 3.25561,101.273 2.42228,97.1062 1.5,93C 2.83333,73 2.83333,53 1.5,33C 2.21849,26.195 4.05183,19.695 7,13.5C 11.9803,8.58514 17.9803,5.91847 25,5.5C 33.1348,8.12793 41.3015,8.12793 49.5,5.5C 56.009,6.66414 62.1756,8.66414 68,11.5C 75.0621,8.30162 82.3954,5.96829 90,4.5C 97.3034,4.59036 104.303,6.59036 111,10.5C 113.333,10.5 115.667,10.5 118,10.5C 120.772,8.23894 123.938,6.73894 127.5,6C 140.087,5.06251 152.587,5.56251 165,7.5C 171.113,6.96881 177.113,5.96881 183,4.5C 192.06,4.95717 201.227,6.29051 210.5,8.5C 214.983,7.72818 219.483,7.06152 224,6.5C 236.213,6.43747 243.213,12.4375 245,24.5C 245.07,42.2106 245.737,59.8773 247,77.5C 249.983,80.813 253.317,83.813 257,86.5C 257.333,85.5 257.667,84.5 258,83.5C 258.497,86.146 258.664,88.8127 258.5,91.5 Z"/></g>
<g><path style="opacity:1" fill="#eeeded" d="M 215.5,13.5 C 215.5,13.8333 215.5,14.1667 215.5,14.5C 214.71,15.6085 214.21,16.9419 214,18.5C 211.667,18.5 209.333,18.5 207,18.5C 206.79,16.9419 206.29,15.6085 205.5,14.5C 193.345,13.5048 181.011,13.1714 168.5,13.5C 168.5,15.1667 168.5,16.8333 168.5,18.5C 166.544,16.8516 164.211,16.1849 161.5,16.5C 161.5,15.5 161.5,14.5 161.5,13.5C 147.99,13.1711 134.656,13.5044 121.5,14.5C 120.834,17.0277 120.168,19.6944 119.5,22.5C 116.549,23.3638 113.883,23.3638 111.5,22.5C 108.796,17.9804 104.796,15.1471 99.5,14C 86.2097,10.358 76.543,14.5247 70.5,26.5C 69.7784,26.0825 69.2784,25.4158 69,24.5C 68.2613,25.5742 67.2613,26.2409 66,26.5C 64.1208,24.9872 61.9541,24.3205 59.5,24.5C 59.5,20.8333 59.5,17.1667 59.5,13.5C 63.3387,15.1672 67.3387,15.6672 71.5,15C 77.5008,10.8355 84.1674,8.66879 91.5,8.5C 100.211,9.71026 108.378,11.7103 116,14.5C 120.801,11.6851 125.967,9.85181 131.5,9C 142.972,7.97356 154.306,8.80689 165.5,11.5C 180.767,7.27065 195.934,7.60399 211,12.5C 218.487,10.2491 225.987,10.0824 233.5,12C 227.319,12.1724 221.319,12.6724 215.5,13.5 Z"/></g>
<g><path style="opacity:1" fill="#45a5f4" d="M 111.5,22.5 C 112.423,24.767 113.256,27.1003 114,29.5C 114.667,48.5 114.667,67.5 114,86.5C 113.081,92.3389 110.581,97.3389 106.5,101.5C 99.3778,105.352 91.7111,106.519 83.5,105C 75.5788,101.401 71.0788,95.2347 70,86.5C 69.1907,66.4567 69.3574,46.4567 70.5,26.5C 76.543,14.5247 86.2097,10.358 99.5,14C 104.796,15.1471 108.796,17.9804 111.5,22.5 Z"/></g>
<g><path style="opacity:1" fill="#f0efef" d="M 41.5,13.5 C 40.596,14.209 40.2627,15.209 40.5,16.5C 37.9208,16.0833 35.7542,16.75 34,18.5C 33.79,16.9419 33.29,15.6085 32.5,14.5C 26.69,13.5104 20.69,13.1771 14.5,13.5C 14.5,14.5 14.5,15.5 14.5,16.5C 10.1131,20.8048 7.94645,26.1382 8,32.5C 7.33333,52.8333 7.33333,73.1667 8,93.5C 7.98172,100.454 10.4817,106.288 15.5,111C 17.087,111.862 18.7536,112.529 20.5,113C 31.5,112.333 42.5,112.333 53.5,113C 58.0675,110.549 62.7341,108.382 67.5,106.5C 73.1155,108.971 78.7822,111.471 84.5,114C 93.6088,115.846 101.942,114.179 109.5,109C 113.689,104.312 117.689,99.4791 121.5,94.5C 122.672,94.9186 123.672,95.5853 124.5,96.5C 126.188,104.677 130.855,110.177 138.5,113C 142.402,113.738 146.068,113.072 149.5,111C 153.036,107.799 156.203,104.299 159,100.5C 163.087,103.254 166.587,106.754 169.5,111C 175.296,113.94 181.463,115.44 188,115.5C 195.645,114.865 203.145,113.532 210.5,111.5C 218.231,113.352 226.064,114.686 234,115.5C 241.056,115.609 247.389,113.609 253,109.5C 256.618,104.734 257.118,99.7339 254.5,94.5C 254.043,93.7025 253.376,93.3691 252.5,93.5C 252.768,91.901 252.434,90.5676 251.5,89.5C 249.167,89.5 246.833,89.5 244.5,89.5C 242.363,86.5639 240.529,82.8972 239,78.5C 238.667,62.5 238.333,46.5 238,30.5C 237.319,26.296 236.152,22.296 234.5,18.5C 235.117,18.3893 235.617,18.056 236,17.5C 238.34,21.5209 239.674,25.8543 240,30.5C 240.333,46.5 240.667,62.5 241,78.5C 243.35,84.1845 247.516,87.6845 253.5,89C 254.828,91.2903 256.495,92.1236 258.5,91.5C 258.5,95.8333 258.5,100.167 258.5,104.5C 257.739,107.854 256.072,110.687 253.5,113C 247.464,116.408 240.964,117.908 234,117.5C 226.263,117.019 218.596,116.019 211,114.5C 206.103,114.932 201.269,115.766 196.5,117C 187.201,118.319 178.201,117.319 169.5,114C 166.568,111.386 163.401,109.219 160,107.5C 155.61,109.542 151.443,112.042 147.5,115C 145.236,115.236 143.069,115.736 141,116.5C 132.896,115.076 127.063,110.576 123.5,103C 121.833,102.333 120.167,102.333 118.5,103C 109.5,115.446 97.4997,119.779 82.5,116C 77.6569,113.815 72.8236,111.649 68,109.5C 63.8318,110.668 59.9984,112.501 56.5,115C 50.6669,116.393 44.8336,116.226 39,114.5C 34.4964,114.859 29.8297,115.525 25,116.5C 13.394,115.561 7.06068,109.227 6,97.5C 5.04893,72.7918 5.38227,48.1251 7,23.5C 8.36389,17.4747 11.8639,13.308 17.5,11C 23.6617,9.66291 29.8283,9.82958 36,11.5C 43.8972,9.23091 51.7305,9.39758 59.5,12C 53.3193,12.1724 47.3193,12.6724 41.5,13.5 Z"/></g>
<g><path style="opacity:1" fill="#737373" d="M 387.5,14.5 C 397.839,14.3335 408.172,14.5002 418.5,15C 424.866,16.3627 429.032,20.196 431,26.5C 431.667,47.5 431.667,68.5 431,89.5C 429.764,96.4016 425.931,101.235 419.5,104C 408.839,104.5 398.172,104.667 387.5,104.5C 387.5,74.5 387.5,44.5 387.5,14.5 Z"/></g>
<g><path style="opacity:1" fill="#43a5f4" d="M 41.5,13.5 C 47.5,13.5 53.5,13.5 59.5,13.5C 59.5,17.1667 59.5,20.8333 59.5,24.5C 59.5,48.8333 59.5,73.1667 59.5,97.5C 59.5,99.8333 59.5,102.167 59.5,104.5C 53.5,105.833 47.5,105.833 41.5,104.5C 41.5,90.8333 41.5,77.1667 41.5,63.5C 38.5,63.5 35.5,63.5 32.5,63.5C 32.5,77.1667 32.5,90.8333 32.5,104.5C 26.8333,104.5 21.1667,104.5 15.5,104.5C 15.5,74.5 15.5,44.5 15.5,14.5C 21.1667,14.5 26.8333,14.5 32.5,14.5C 32.5,25.1667 32.5,35.8333 32.5,46.5C 35.5,46.5 38.5,46.5 41.5,46.5C 41.5,35.5 41.5,24.5 41.5,13.5 Z"/></g>
<g><path style="opacity:1" fill="#44a5f4" d="M 161.5,16.5 C 161.5,21.5 161.5,26.5 161.5,31.5C 157.833,31.5 154.167,31.5 150.5,31.5C 150.5,55.8333 150.5,80.1667 150.5,104.5C 144.5,104.5 138.5,104.5 132.5,104.5C 132.831,79.9943 132.498,55.6609 131.5,31.5C 128.167,31.5 124.833,31.5 121.5,31.5C 121.5,25.8333 121.5,20.1667 121.5,14.5C 134.656,13.5044 147.99,13.1711 161.5,13.5C 161.5,14.5 161.5,15.5 161.5,16.5 Z"/></g>
<g><path style="opacity:1" fill="#41a4f4" d="M 205.5,14.5 C 205.5,20.1667 205.5,25.8333 205.5,31.5C 199.5,31.5 193.5,31.5 187.5,31.5C 187.5,37.5 187.5,43.5 187.5,49.5C 193.167,49.5 198.833,49.5 204.5,49.5C 204.5,55.1667 204.5,60.8333 204.5,66.5C 198.833,66.5 193.167,66.5 187.5,66.5C 187.5,73.5 187.5,80.5 187.5,87.5C 193.833,87.5 200.167,87.5 206.5,87.5C 206.5,93.1667 206.5,98.8333 206.5,104.5C 194.167,104.5 181.833,104.5 169.5,104.5C 169.5,74.5 169.5,44.5 169.5,14.5C 181.5,14.5 193.5,14.5 205.5,14.5 Z"/></g>
<g><path style="opacity:1" fill="#43a5f4" d="M 215.5,13.5 C 221.69,13.1771 227.69,13.5104 233.5,14.5C 233.5,39.5 233.5,64.5 233.5,89.5C 237.167,89.5 240.833,89.5 244.5,89.5C 246.833,89.5 249.167,89.5 251.5,89.5C 251.5,94.5 251.5,99.5 251.5,104.5C 239.5,104.5 227.5,104.5 215.5,104.5C 215.5,74.5 215.5,44.5 215.5,14.5C 215.5,14.1667 215.5,13.8333 215.5,13.5 Z"/></g>
<g><path style="opacity:1" fill="#727272" d="M 260.5,14.5 C 272.5,14.5 284.5,14.5 296.5,14.5C 296.5,20.1667 296.5,25.8333 296.5,31.5C 290.5,31.5 284.5,31.5 278.5,31.5C 278.5,36.5 278.5,41.5 278.5,46.5C 284.167,46.5 289.833,46.5 295.5,46.5C 295.5,52.1667 295.5,57.8333 295.5,63.5C 289.833,63.5 284.167,63.5 278.5,63.5C 278.5,77.1667 278.5,90.8333 278.5,104.5C 272.5,104.5 266.5,104.5 260.5,104.5C 260.5,74.5 260.5,44.5 260.5,14.5 Z"/></g>
<g><path style="opacity:1" fill="#727272" d="M 321.5,14.5 C 321.5,44.5 321.5,74.5 321.5,104.5C 315.833,104.5 310.167,104.5 304.5,104.5C 304.5,74.5 304.5,44.5 304.5,14.5C 310.167,14.5 315.833,14.5 321.5,14.5 Z"/></g>
<g><path style="opacity:1" fill="#d2d2d2" d="M 321.5,14.5 C 322.498,44.6621 322.831,74.9954 322.5,105.5C 316.31,105.823 310.31,105.49 304.5,104.5C 310.167,104.5 315.833,104.5 321.5,104.5C 321.5,74.5 321.5,44.5 321.5,14.5 Z"/></g>
<g><path style="opacity:1" fill="#969696" d="M 350.5,14.5 C 344.5,14.5 338.5,14.5 332.5,14.5C 332.5,44.5 332.5,74.5 332.5,104.5C 338.167,104.5 343.833,104.5 349.5,104.5C 343.69,105.49 337.69,105.823 331.5,105.5C 331.5,74.8333 331.5,44.1667 331.5,13.5C 338.022,13.1765 344.355,13.5098 350.5,14.5 Z"/></g>
<g><path style="opacity:1" fill="#737373" d="M 350.5,14.5 C 352.984,26.7745 355.317,39.1078 357.5,51.5C 357.231,53.4286 357.731,55.0953 359,56.5C 359.5,42.504 359.667,28.504 359.5,14.5C 365.167,14.5 370.833,14.5 376.5,14.5C 376.5,44.5 376.5,74.5 376.5,104.5C 370.5,104.5 364.5,104.5 358.5,104.5C 355.99,90.1149 353.156,75.7815 350,61.5C 349.5,75.8295 349.333,90.1628 349.5,104.5C 343.833,104.5 338.167,104.5 332.5,104.5C 332.5,74.5 332.5,44.5 332.5,14.5C 338.5,14.5 344.5,14.5 350.5,14.5 Z"/></g>
<g><path style="opacity:1" fill="#47a6f5" d="M 483.5,97.5 C 483.5,99.8333 483.5,102.167 483.5,104.5C 478.167,104.5 472.833,104.5 467.5,104.5C 466.514,100.03 466.181,95.3633 466.5,90.5C 462.5,90.5 458.5,90.5 454.5,90.5C 454.331,95.1811 453.998,99.8478 453.5,104.5C 447.833,104.5 442.167,104.5 436.5,104.5C 436.5,103.5 436.5,102.5 436.5,101.5C 438.978,72.1477 441.644,42.8143 444.5,13.5C 455.082,13.1801 465.582,13.5134 476,14.5C 478.475,42.1734 480.975,69.8401 483.5,97.5 Z"/></g>
<g><path style="opacity:1" fill="#e7e7e7" d="M 14.5,16.5 C 14.5,18.5 14.5,20.5 14.5,22.5C 13.2395,25.2578 12.4061,28.2578 12,31.5C 11.3333,52.5 11.3333,73.5 12,94.5C 12.1558,97.1909 12.9891,99.5242 14.5,101.5C 14.5,102.833 14.5,104.167 14.5,105.5C 20.69,105.823 26.69,105.49 32.5,104.5C 33.4614,102.735 33.7947,100.735 33.5,98.5C 34.2679,99.2625 34.7679,100.263 35,101.5C 36.6995,100.594 38.5328,100.261 40.5,100.5C 40.2322,102.099 40.5655,103.432 41.5,104.5C 47.5,105.833 53.5,105.833 59.5,104.5C 61.2505,101.69 63.7505,99.6904 67,98.5C 71.9072,102.371 77.0739,105.871 82.5,109C 101.996,113.937 113.496,106.104 117,85.5C 117.093,71.787 117.76,58.1203 119,44.5C 121.325,39.4537 123.991,39.4537 127,44.5C 127.333,45.5 127.667,46.5 128,47.5C 128.179,64.8567 128.846,82.1901 130,99.5C 130.278,100.416 130.778,101.082 131.5,101.5C 131.5,102.833 131.5,104.167 131.5,105.5C 138.022,105.823 144.355,105.49 150.5,104.5C 151.384,101.977 152.218,99.3102 153,96.5C 153.333,81.5 153.667,66.5 154,51.5C 153.787,46.0572 156.12,42.3905 161,40.5C 163.425,41.2614 164.758,42.928 165,45.5C 165.175,61.0743 165.675,76.5743 166.5,92C 166.167,92.3333 165.833,92.6667 165.5,93C 166.056,97.0385 167.056,100.872 168.5,104.5C 168.5,105.167 168.833,105.5 169.5,105.5C 168.294,106.88 168.627,108.047 170.5,109C 175.732,112.081 181.399,113.581 187.5,113.5C 195.526,112.77 203.36,111.103 211,108.5C 216.833,110.083 222.666,111.583 228.5,113C 237.186,114.579 244.853,112.579 251.5,107C 249.618,106.802 247.952,106.302 246.5,105.5C 248.5,105.5 250.5,105.5 252.5,105.5C 252.5,101.5 252.5,97.5 252.5,93.5C 253.376,93.3691 254.043,93.7025 254.5,94.5C 257.118,99.7339 256.618,104.734 253,109.5C 247.389,113.609 241.056,115.609 234,115.5C 226.064,114.686 218.231,113.352 210.5,111.5C 203.145,113.532 195.645,114.865 188,115.5C 181.463,115.44 175.296,113.94 169.5,111C 166.587,106.754 163.087,103.254 159,100.5C 156.203,104.299 153.036,107.799 149.5,111C 146.068,113.072 142.402,113.738 138.5,113C 130.855,110.177 126.188,104.677 124.5,96.5C 123.672,95.5853 122.672,94.9186 121.5,94.5C 117.689,99.4791 113.689,104.312 109.5,109C 101.942,114.179 93.6088,115.846 84.5,114C 78.7822,111.471 73.1155,108.971 67.5,106.5C 62.7341,108.382 58.0675,110.549 53.5,113C 42.5,112.333 31.5,112.333 20.5,113C 18.7536,112.529 17.087,111.862 15.5,111C 10.4817,106.288 7.98172,100.454 8,93.5C 7.33333,73.1667 7.33333,52.8333 8,32.5C 7.94645,26.1382 10.1131,20.8048 14.5,16.5 Z"/></g>
<g><path style="opacity:1" fill="#bababa" d="M 260.5,14.5 C 260.5,44.5 260.5,74.5 260.5,104.5C 266.5,104.5 272.5,104.5 278.5,104.5C 272.355,105.49 266.022,105.823 259.5,105.5C 259.5,105.167 259.5,104.833 259.5,104.5C 259.169,74.3287 259.502,44.3287 260.5,14.5 Z"/></g>
<g><path style="opacity:1" fill="#a3a3a3" d="M 376.5,14.5 C 370.833,14.5 365.167,14.5 359.5,14.5C 359.667,28.504 359.5,42.504 359,56.5C 357.731,55.0953 357.231,53.4286 357.5,51.5C 358.495,39.011 358.829,26.3443 358.5,13.5C 364.69,13.1771 370.69,13.5104 376.5,14.5 Z"/></g>
<g><path style="opacity:1" fill="#d5d7d9" d="M 205.5,14.5 C 206.29,15.6085 206.79,16.9419 207,18.5C 209.333,18.5 211.667,18.5 214,18.5C 214.21,16.9419 214.71,15.6085 215.5,14.5C 215.5,44.5 215.5,74.5 215.5,104.5C 215.5,104.833 215.5,105.167 215.5,105.5C 212.833,105.5 210.167,105.5 207.5,105.5C 207.334,100.821 207.501,96.1548 208,91.5C 212.177,84.3773 212.511,77.044 209,69.5C 201.237,68.8194 196.07,72.3194 193.5,80C 194.218,81.9874 195.218,83.8208 196.5,85.5C 199.977,86.1672 203.311,86.8339 206.5,87.5C 200.167,87.5 193.833,87.5 187.5,87.5C 187.5,80.5 187.5,73.5 187.5,66.5C 193.167,66.5 198.833,66.5 204.5,66.5C 204.5,60.8333 204.5,55.1667 204.5,49.5C 205.327,54.9851 205.827,60.6518 206,66.5C 206.333,61.8333 206.667,57.1667 207,52.5C 207.667,53.8333 208.333,53.8333 209,52.5C 212.333,47.1667 212.333,41.8333 209,36.5C 208.196,35.1955 207.029,34.5288 205.5,34.5C 198.551,35.7834 195.551,39.7834 196.5,46.5C 195.757,47.1818 195.091,47.8485 194.5,48.5C 192.5,48.5 190.5,48.5 188.5,48.5C 188.5,43.1667 188.5,37.8333 188.5,32.5C 194.358,32.8222 200.025,32.4889 205.5,31.5C 205.5,25.8333 205.5,20.1667 205.5,14.5 Z"/></g>
<g><path style="opacity:1" fill="#caced1" d="M 41.5,13.5 C 41.5,24.5 41.5,35.5 41.5,46.5C 38.5,46.5 35.5,46.5 32.5,46.5C 32.5,35.8333 32.5,25.1667 32.5,14.5C 33.29,15.6085 33.79,16.9419 34,18.5C 35.7542,16.75 37.9208,16.0833 40.5,16.5C 40.2627,15.209 40.596,14.209 41.5,13.5 Z"/></g>
<g><path style="opacity:1" fill="#dcdcdc" d="M 14.5,22.5 C 14.5,48.8333 14.5,75.1667 14.5,101.5C 12.9891,99.5242 12.1558,97.1909 12,94.5C 11.3333,73.5 11.3333,52.5 12,31.5C 12.4061,28.2578 13.2395,25.2578 14.5,22.5 Z"/></g>
<g><path style="opacity:1" fill="#dcdddd" d="M 233.5,14.5 C 234.434,15.5676 234.768,16.901 234.5,18.5C 236.152,22.296 237.319,26.296 238,30.5C 238.333,46.5 238.667,62.5 239,78.5C 240.529,82.8972 242.363,86.5639 244.5,89.5C 240.833,89.5 237.167,89.5 233.5,89.5C 233.5,64.5 233.5,39.5 233.5,14.5 Z"/></g>
<g><path style="opacity:1" fill="#6cb3ee" d="M 32.5,14.5 C 26.8333,14.5 21.1667,14.5 15.5,14.5C 15.5,44.5 15.5,74.5 15.5,104.5C 21.1667,104.5 26.8333,104.5 32.5,104.5C 26.69,105.49 20.69,105.823 14.5,105.5C 14.5,104.167 14.5,102.833 14.5,101.5C 14.5,75.1667 14.5,48.8333 14.5,22.5C 14.5,20.5 14.5,18.5 14.5,16.5C 14.5,15.5 14.5,14.5 14.5,13.5C 20.69,13.1771 26.69,13.5104 32.5,14.5 Z"/></g>
<g><path style="opacity:1" fill="#fcfcfc" d="M 405.5,29.5 C 408.272,29.22 410.772,29.8866 413,31.5C 413.667,49.8333 413.667,68.1667 413,86.5C 410.865,88.2785 408.365,88.9452 405.5,88.5C 405.5,68.8333 405.5,49.1667 405.5,29.5 Z"/></g>
<g><path style="opacity:1" fill="#f3f9fe" d="M 463.5,70.5 C 463.5,72.1667 463.5,73.8333 463.5,75.5C 461.167,75.5 458.833,75.5 456.5,75.5C 456.966,60.1151 458.133,44.7818 460,29.5C 461.909,43.1071 463.076,56.7737 463.5,70.5 Z"/></g>
<g><path style="opacity:1" fill="#dbdbdb" d="M 121.5,14.5 C 121.5,20.1667 121.5,25.8333 121.5,31.5C 124.833,31.5 128.167,31.5 131.5,31.5C 131.5,54.8333 131.5,78.1667 131.5,101.5C 130.778,101.082 130.278,100.416 130,99.5C 128.846,82.1901 128.179,64.8567 128,47.5C 127.667,46.5 127.333,45.5 127,44.5C 123.991,39.4537 121.325,39.4537 119,44.5C 117.76,58.1203 117.093,71.787 117,85.5C 113.496,106.104 101.996,113.937 82.5,109C 77.0739,105.871 71.9072,102.371 67,98.5C 63.7505,99.6904 61.2505,101.69 59.5,104.5C 59.5,102.167 59.5,99.8333 59.5,97.5C 61.3588,97.5391 62.6921,96.7058 63.5,95C 65.1667,94.3333 66.8333,94.3333 68.5,95C 71.8333,98.3333 75.1667,101.667 78.5,105C 87.5,111 96.5,111 105.5,105C 106.337,103.989 106.67,102.822 106.5,101.5C 110.581,97.3389 113.081,92.3389 114,86.5C 114.667,67.5 114.667,48.5 114,29.5C 113.256,27.1003 112.423,24.767 111.5,22.5C 113.883,23.3638 116.549,23.3638 119.5,22.5C 120.168,19.6944 120.834,17.0277 121.5,14.5 Z"/></g>
<g><path style="opacity:1" fill="#b8c7d4" d="M 205.5,31.5 C 200.025,32.4889 194.358,32.8222 188.5,32.5C 188.5,37.8333 188.5,43.1667 188.5,48.5C 190.5,48.5 192.5,48.5 194.5,48.5C 198.042,48.1872 201.375,48.5206 204.5,49.5C 198.833,49.5 193.167,49.5 187.5,49.5C 187.5,43.5 187.5,37.5 187.5,31.5C 193.5,31.5 199.5,31.5 205.5,31.5 Z"/></g>
<g><path style="opacity:1" fill="#dbdbda" d="M 161.5,16.5 C 164.211,16.1849 166.544,16.8516 168.5,18.5C 168.5,47.1667 168.5,75.8333 168.5,104.5C 167.056,100.872 166.056,97.0385 165.5,93C 165.833,92.6667 166.167,92.3333 166.5,92C 165.675,76.5743 165.175,61.0743 165,45.5C 164.758,42.928 163.425,41.2614 161,40.5C 156.12,42.3905 153.787,46.0572 154,51.5C 153.667,66.5 153.333,81.5 153,96.5C 152.218,99.3102 151.384,101.977 150.5,104.5C 150.5,80.1667 150.5,55.8333 150.5,31.5C 154.167,31.5 157.833,31.5 161.5,31.5C 161.5,26.5 161.5,21.5 161.5,16.5 Z"/></g>
<g><path style="opacity:1" fill="#e5e4e4" d="M 204.5,49.5 C 201.375,48.5206 198.042,48.1872 194.5,48.5C 195.091,47.8485 195.757,47.1818 196.5,46.5C 195.551,39.7834 198.551,35.7834 205.5,34.5C 207.029,34.5288 208.196,35.1955 209,36.5C 212.333,41.8333 212.333,47.1667 209,52.5C 208.333,53.8333 207.667,53.8333 207,52.5C 206.667,57.1667 206.333,61.8333 206,66.5C 205.827,60.6518 205.327,54.9851 204.5,49.5 Z"/></g>
<g><path style="opacity:1" fill="#d1d3d4" d="M 59.5,24.5 C 61.9541,24.3205 64.1208,24.9872 66,26.5C 67.2613,26.2409 68.2613,25.5742 69,24.5C 69.2784,25.4158 69.7784,26.0825 70.5,26.5C 69.3574,46.4567 69.1907,66.4567 70,86.5C 71.0788,95.2347 75.5788,101.401 83.5,105C 91.7111,106.519 99.3778,105.352 106.5,101.5C 106.67,102.822 106.337,103.989 105.5,105C 96.5,111 87.5,111 78.5,105C 75.1667,101.667 71.8333,98.3333 68.5,95C 66.8333,94.3333 65.1667,94.3333 63.5,95C 62.6921,96.7058 61.3588,97.5391 59.5,97.5C 59.5,73.1667 59.5,48.8333 59.5,24.5 Z"/></g>
<g><path style="opacity:1" fill="#8ebee6" d="M 205.5,14.5 C 193.5,14.5 181.5,14.5 169.5,14.5C 169.5,44.5 169.5,74.5 169.5,104.5C 181.833,104.5 194.167,104.5 206.5,104.5C 194.345,105.495 182.011,105.829 169.5,105.5C 168.833,105.5 168.5,105.167 168.5,104.5C 168.5,75.8333 168.5,47.1667 168.5,18.5C 168.5,16.8333 168.5,15.1667 168.5,13.5C 181.011,13.1714 193.345,13.5048 205.5,14.5 Z"/></g>
<g><path style="opacity:1" fill="#c8c7c7" d="M 89.5,30.5 C 91.4672,30.2606 93.3005,30.5939 95,31.5C 95.6667,50.1667 95.6667,68.8333 95,87.5C 92.4082,88.9817 90.0749,88.6483 88,86.5C 87.3333,68.5 87.3333,50.5 88,32.5C 88.7172,31.9558 89.2172,31.2891 89.5,30.5 Z"/></g>
<g><path style="opacity:1" fill="#a8c7e0" d="M 131.5,31.5 C 132.498,55.6609 132.831,79.9943 132.5,104.5C 138.5,104.5 144.5,104.5 150.5,104.5C 144.355,105.49 138.022,105.823 131.5,105.5C 131.5,104.167 131.5,102.833 131.5,101.5C 131.5,78.1667 131.5,54.8333 131.5,31.5 Z"/></g>
<g><path style="opacity:1" fill="#8ac6f8" d="M 463.5,70.5 C 464.461,72.2646 464.795,74.2646 464.5,76.5C 461.615,76.8064 458.948,76.4731 456.5,75.5C 458.833,75.5 461.167,75.5 463.5,75.5C 463.5,73.8333 463.5,72.1667 463.5,70.5 Z"/></g>
<g><path style="opacity:1" fill="#aac0d2" d="M 41.5,104.5 C 40.5655,103.432 40.2322,102.099 40.5,100.5C 40.5,88.5 40.5,76.5 40.5,64.5C 38.1667,64.5 35.8333,64.5 33.5,64.5C 33.5,75.8333 33.5,87.1667 33.5,98.5C 33.7947,100.735 33.4614,102.735 32.5,104.5C 32.5,90.8333 32.5,77.1667 32.5,63.5C 35.5,63.5 38.5,63.5 41.5,63.5C 41.5,77.1667 41.5,90.8333 41.5,104.5 Z"/></g>
<g><path style="opacity:1" fill="#cac9c9" d="M 40.5,100.5 C 38.5328,100.261 36.6995,100.594 35,101.5C 34.7679,100.263 34.2679,99.2625 33.5,98.5C 33.5,87.1667 33.5,75.8333 33.5,64.5C 35.8333,64.5 38.1667,64.5 40.5,64.5C 40.5,76.5 40.5,88.5 40.5,100.5 Z"/></g>
<g><path style="opacity:1" fill="#85bae6" d="M 251.5,89.5 C 252.434,90.5676 252.768,91.901 252.5,93.5C 252.5,97.5 252.5,101.5 252.5,105.5C 250.5,105.5 248.5,105.5 246.5,105.5C 236.167,105.5 225.833,105.5 215.5,105.5C 215.5,105.167 215.5,104.833 215.5,104.5C 227.5,104.5 239.5,104.5 251.5,104.5C 251.5,99.5 251.5,94.5 251.5,89.5 Z"/></g>
<g><path style="opacity:1" fill="#a4d3fa" d="M 436.5,101.5 C 436.5,102.5 436.5,103.5 436.5,104.5C 442.167,104.5 447.833,104.5 453.5,104.5C 447.69,105.49 441.69,105.823 435.5,105.5C 435.232,103.901 435.566,102.568 436.5,101.5 Z"/></g>
<g><path style="opacity:1" fill="#a3d3f9" d="M 483.5,97.5 C 484.473,99.9479 484.806,102.615 484.5,105.5C 478.642,105.822 472.975,105.489 467.5,104.5C 472.833,104.5 478.167,104.5 483.5,104.5C 483.5,102.167 483.5,99.8333 483.5,97.5 Z"/></g>
<g><path style="opacity:1" fill="#e0e0e0" d="M 215.5,105.5 C 225.833,105.5 236.167,105.5 246.5,105.5C 247.952,106.302 249.618,106.802 251.5,107C 244.853,112.579 237.186,114.579 228.5,113C 222.666,111.583 216.833,110.083 211,108.5C 203.36,111.103 195.526,112.77 187.5,113.5C 181.399,113.581 175.732,112.081 170.5,109C 168.627,108.047 168.294,106.88 169.5,105.5C 182.011,105.829 194.345,105.495 206.5,104.5C 206.5,98.8333 206.5,93.1667 206.5,87.5C 203.311,86.8339 199.977,86.1672 196.5,85.5C 195.218,83.8208 194.218,81.9874 193.5,80C 196.07,72.3194 201.237,68.8194 209,69.5C 212.511,77.044 212.177,84.3773 208,91.5C 207.501,96.1548 207.334,100.821 207.5,105.5C 210.167,105.5 212.833,105.5 215.5,105.5 Z"/></g>
<g><path style="opacity:1" fill="#5b5b5b" d="M 346.5,129.5 C 360.651,129.136 365.151,135.47 360,148.5C 351.311,155.019 344.645,153.353 340,143.5C 339.209,137.417 341.376,132.75 346.5,129.5 Z"/></g>
<g><path style="opacity:1" fill="#525252" d="M 63.5,129.5 C 63.5,136.833 63.5,144.167 63.5,151.5C 62.1667,151.5 60.8333,151.5 59.5,151.5C 59.5,144.167 59.5,136.833 59.5,129.5C 60.8333,129.5 62.1667,129.5 63.5,129.5 Z"/></g>
<g><path style="opacity:1" fill="#939393" d="M 92.5,129.5 C 92.5,136.833 92.5,144.167 92.5,151.5C 93.8333,151.5 95.1667,151.5 96.5,151.5C 95.0813,152.451 93.4147,152.784 91.5,152.5C 91.1746,144.648 91.508,136.982 92.5,129.5 Z"/></g>
<g><path style="opacity:1" fill="#545454" d="M 92.5,129.5 C 94.288,129.215 95.9547,129.548 97.5,130.5C 100.524,134.518 103.524,138.518 106.5,142.5C 106.56,143.043 106.893,143.376 107.5,143.5C 108.493,138.88 108.827,134.214 108.5,129.5C 109.833,129.5 111.167,129.5 112.5,129.5C 112.5,136.833 112.5,144.167 112.5,151.5C 110.801,151.66 109.134,151.494 107.5,151C 104.285,147.291 101.285,143.458 98.5,139.5C 98.2172,138.711 97.7172,138.044 97,137.5C 96.5008,142.155 96.3342,146.821 96.5,151.5C 95.1667,151.5 93.8333,151.5 92.5,151.5C 92.5,144.167 92.5,136.833 92.5,129.5 Z"/></g>
<g><path style="opacity:1" fill="#a2a2a2" d="M 108.5,129.5 C 108.827,134.214 108.493,138.88 107.5,143.5C 106.893,143.376 106.56,143.043 106.5,142.5C 107.167,138.167 107.833,133.833 108.5,129.5 Z"/></g>
<g><path style="opacity:1" fill="#595959" d="M 223.5,129.5 C 225.5,129.5 227.5,129.5 229.5,129.5C 231.833,136.833 234.167,144.167 236.5,151.5C 232.852,150.519 229.352,149.185 226,147.5C 224.5,147.833 223,148.167 221.5,148.5C 220.213,151.281 218.213,151.948 215.5,150.5C 218.175,143.471 220.842,136.471 223.5,129.5 Z"/></g>
<g><path style="opacity:1" fill="#525252" d="M 469.5,129.5 C 470.833,129.5 472.167,129.5 473.5,129.5C 473.5,135.5 473.5,141.5 473.5,147.5C 476.167,147.5 478.833,147.5 481.5,147.5C 481.5,148.833 481.5,150.167 481.5,151.5C 477.5,151.5 473.5,151.5 469.5,151.5C 469.5,144.167 469.5,136.833 469.5,129.5 Z"/></g>
<g><path style="opacity:1" fill="#828282" d="M 33.5,133.5 C 33.1667,133.5 32.8333,133.5 32.5,133.5C 32.5,132.5 32.5,131.5 32.5,130.5C 28.5,130.5 24.5,130.5 20.5,130.5C 20.5,137.5 20.5,144.5 20.5,151.5C 21.8333,151.5 23.1667,151.5 24.5,151.5C 23.0813,152.451 21.4147,152.784 19.5,152.5C 19.5,144.833 19.5,137.167 19.5,129.5C 24.1667,129.5 28.8333,129.5 33.5,129.5C 33.5,130.833 33.5,132.167 33.5,133.5 Z"/></g>
<g><path style="opacity:1" fill="#525252" d="M 32.5,133.5 C 29.8333,133.5 27.1667,133.5 24.5,133.5C 24.2155,135.415 24.5489,137.081 25.5,138.5C 27.5,138.5 29.5,138.5 31.5,138.5C 31.5,139.833 31.5,141.167 31.5,142.5C 29.1667,142.5 26.8333,142.5 24.5,142.5C 24.5,145.5 24.5,148.5 24.5,151.5C 23.1667,151.5 21.8333,151.5 20.5,151.5C 20.5,144.5 20.5,137.5 20.5,130.5C 24.5,130.5 28.5,130.5 32.5,130.5C 32.5,131.5 32.5,132.5 32.5,133.5 Z"/></g>
<g><path style="opacity:1" fill="#8f8f8f" d="M 63.5,129.5 C 64.492,136.982 64.8254,144.648 64.5,152.5C 62.5853,152.784 60.9187,152.451 59.5,151.5C 60.8333,151.5 62.1667,151.5 63.5,151.5C 63.5,144.167 63.5,136.833 63.5,129.5 Z"/></g>
<g><path style="opacity:1" fill="#595959" d="M 140.5,129.5 C 153.395,127.571 159.229,132.905 158,145.5C 157.215,147.286 156.049,148.786 154.5,150C 149.964,151.379 145.297,151.879 140.5,151.5C 140.5,144.167 140.5,136.833 140.5,129.5 Z"/></g>
<g><path style="opacity:1" fill="#585858" d="M 308.5,151.5 C 308.5,148.5 308.5,145.5 308.5,142.5C 305.167,142.5 301.833,142.5 298.5,142.5C 298.5,145.5 298.5,148.5 298.5,151.5C 296.833,151.5 295.167,151.5 293.5,151.5C 293.5,144.167 293.5,136.833 293.5,129.5C 295.167,129.5 296.833,129.5 298.5,129.5C 298.5,132.5 298.5,135.5 298.5,138.5C 301.833,138.5 305.167,138.5 308.5,138.5C 308.5,135.5 308.5,132.5 308.5,129.5C 309.833,129.5 311.167,129.5 312.5,129.5C 312.5,136.833 312.5,144.167 312.5,151.5C 311.167,151.5 309.833,151.5 308.5,151.5 Z"/></g>
<g><path style="opacity:1" fill="#535353" d="M 403.5,133.5 C 401.5,133.5 399.5,133.5 397.5,133.5C 397.5,139.5 397.5,145.5 397.5,151.5C 396.167,151.5 394.833,151.5 393.5,151.5C 393.5,145.5 393.5,139.5 393.5,133.5C 391.5,133.5 389.5,133.5 387.5,133.5C 387.5,132.167 387.5,130.833 387.5,129.5C 392.833,129.5 398.167,129.5 403.5,129.5C 403.5,130.833 403.5,132.167 403.5,133.5 Z"/></g>
<g><path style="opacity:1" fill="#878787" d="M 442.5,133.5 C 442.167,133.5 441.833,133.5 441.5,133.5C 441.5,132.5 441.5,131.5 441.5,130.5C 437.5,130.5 433.5,130.5 429.5,130.5C 429.5,137.5 429.5,144.5 429.5,151.5C 433.833,151.5 438.167,151.5 442.5,151.5C 438.03,152.486 433.363,152.819 428.5,152.5C 428.5,144.833 428.5,137.167 428.5,129.5C 433.167,129.5 437.833,129.5 442.5,129.5C 442.5,130.833 442.5,132.167 442.5,133.5 Z"/></g>
<g><path style="opacity:1" fill="#545454" d="M 441.5,133.5 C 438.833,133.5 436.167,133.5 433.5,133.5C 433.216,135.415 433.549,137.081 434.5,138.5C 436.5,138.5 438.5,138.5 440.5,138.5C 440.5,139.833 440.5,141.167 440.5,142.5C 438.167,142.5 435.833,142.5 433.5,142.5C 433.5,144.167 433.5,145.833 433.5,147.5C 436.5,147.5 439.5,147.5 442.5,147.5C 442.5,148.833 442.5,150.167 442.5,151.5C 438.167,151.5 433.833,151.5 429.5,151.5C 429.5,144.5 429.5,137.5 429.5,130.5C 433.5,130.5 437.5,130.5 441.5,130.5C 441.5,131.5 441.5,132.5 441.5,133.5 Z"/></g>
<g><path style="opacity:1" fill="#bebebe" d="M 32.5,133.5 C 32.8333,133.5 33.1667,133.5 33.5,133.5C 31.0521,134.473 28.3854,134.806 25.5,134.5C 25.5,135.833 25.5,137.167 25.5,138.5C 24.5489,137.081 24.2155,135.415 24.5,133.5C 27.1667,133.5 29.8333,133.5 32.5,133.5 Z"/></g>
<g><path style="opacity:1" fill="#bebebe" d="M 441.5,133.5 C 441.833,133.5 442.167,133.5 442.5,133.5C 440.052,134.473 437.385,134.806 434.5,134.5C 434.5,135.833 434.5,137.167 434.5,138.5C 433.549,137.081 433.216,135.415 433.5,133.5C 436.167,133.5 438.833,133.5 441.5,133.5 Z"/></g>
<g><path style="opacity:1" fill="#f6f6f6" d="M 145.5,134.5 C 150.894,133.398 153.894,135.565 154.5,141C 153.319,145.68 150.319,147.847 145.5,147.5C 145.5,143.167 145.5,138.833 145.5,134.5 Z"/></g>
<g><path style="opacity:1" fill="#f8f8f8" d="M 347.5,134.5 C 356.805,133.951 359.472,137.785 355.5,146C 351.22,148.477 347.72,147.644 345,143.5C 343.927,139.9 344.76,136.9 347.5,134.5 Z"/></g>
<g><path style="opacity:1" fill="#9b9b9b" d="M 387.5,133.5 C 389.5,133.5 391.5,133.5 393.5,133.5C 393.5,139.5 393.5,145.5 393.5,151.5C 394.833,151.5 396.167,151.5 397.5,151.5C 396.081,152.451 394.415,152.784 392.5,152.5C 392.5,146.5 392.5,140.5 392.5,134.5C 390.585,134.784 388.919,134.451 387.5,133.5 Z"/></g>
<g><path style="opacity:1" fill="#c7c7c7" d="M 403.5,133.5 C 402.081,134.451 400.415,134.784 398.5,134.5C 398.822,140.358 398.489,146.025 397.5,151.5C 397.5,145.5 397.5,139.5 397.5,133.5C 399.5,133.5 401.5,133.5 403.5,133.5 Z"/></g>
<g><path style="opacity:1" fill="#e6e6e6" d="M 225.5,135.5 C 227.655,137.617 228.655,140.284 228.5,143.5C 226.833,143.5 225.167,143.5 223.5,143.5C 223.963,140.779 224.629,138.112 225.5,135.5 Z"/></g>
<g><path style="opacity:1" fill="#cccccc" d="M 98.5,139.5 C 97.8333,143.5 97.1667,147.5 96.5,151.5C 96.3342,146.821 96.5008,142.155 97,137.5C 97.7172,138.044 98.2172,138.711 98.5,139.5 Z"/></g>
<g><path style="opacity:1" fill="#c9c9c9" d="M 31.5,142.5 C 29.7354,143.461 27.7354,143.795 25.5,143.5C 25.8064,146.385 25.4731,149.052 24.5,151.5C 24.5,148.5 24.5,145.5 24.5,142.5C 26.8333,142.5 29.1667,142.5 31.5,142.5 Z"/></g>
<g><path style="opacity:1" fill="#adadad" d="M 308.5,151.5 C 307.527,149.052 307.194,146.385 307.5,143.5C 304.833,143.5 302.167,143.5 299.5,143.5C 299.806,146.385 299.473,149.052 298.5,151.5C 298.5,148.5 298.5,145.5 298.5,142.5C 301.833,142.5 305.167,142.5 308.5,142.5C 308.5,145.5 308.5,148.5 308.5,151.5 Z"/></g>
</svg>
