<?xml version="1.0" encoding="UTF-8"?>
<!DOCTYPE svg PUBLIC "-//W3C//DTD SVG 1.1//EN" "http://www.w3.org/Graphics/SVG/1.1/DTD/svg11.dtd">
<svg xmlns="http://www.w3.org/2000/svg" version="1.1" width="500px" height="262px" style="shape-rendering:geometricPrecision; text-rendering:geometricPrecision; image-rendering:optimizeQuality; fill-rule:evenodd; clip-rule:evenodd" xmlns:xlink="http://www.w3.org/1999/xlink">
<g><path style="opacity:1" fill="#42a4f4" d="M -0.5,-0.5 C 166.167,-0.5 332.833,-0.5 499.5,-0.5C 499.5,86.8333 499.5,174.167 499.5,261.5C 332.833,261.5 166.167,261.5 -0.5,261.5C -0.5,174.167 -0.5,86.8333 -0.5,-0.5 Z"/></g>
<g><path style="opacity:1" fill="#f9fcfe" d="M 12.5,69.5 C 20.1667,69.5 27.8333,69.5 35.5,69.5C 35.5,80.1667 35.5,90.8333 35.5,101.5C 36.8333,101.5 38.1667,101.5 39.5,101.5C 39.5,90.8333 39.5,80.1667 39.5,69.5C 46.8333,69.5 54.1667,69.5 61.5,69.5C 61.5,101.167 61.5,132.833 61.5,164.5C 54.1667,164.5 46.8333,164.5 39.5,164.5C 39.5,150.833 39.5,137.167 39.5,123.5C 38.1667,123.5 36.8333,123.5 35.5,123.5C 35.5,137.167 35.5,150.833 35.5,164.5C 27.8333,164.5 20.1667,164.5 12.5,164.5C 12.5,132.833 12.5,101.167 12.5,69.5 Z"/></g>
<g><path style="opacity:1" fill="#f8fbfe" d="M 85.5,68.5 C 96.3991,67.1876 105.566,70.5209 113,78.5C 114,81.1667 115,83.8333 116,86.5C 116.916,107.533 116.583,128.533 115,149.5C 107.018,165.384 94.8509,169.551 78.5,162C 72.8771,157.936 69.3771,152.436 68,145.5C 67.3333,125.833 67.3333,106.167 68,86.5C 70.6922,77.3094 76.5255,71.3094 85.5,68.5 Z"/></g>
<g><path style="opacity:1" fill="#fcfdfe" d="M 119.5,69.5 C 134.167,69.5 148.833,69.5 163.5,69.5C 163.5,76.8333 163.5,84.1667 163.5,91.5C 159.833,91.5 156.167,91.5 152.5,91.5C 152.5,115.833 152.5,140.167 152.5,164.5C 145.167,164.5 137.833,164.5 130.5,164.5C 130.5,140.167 130.5,115.833 130.5,91.5C 126.833,91.5 123.167,91.5 119.5,91.5C 119.5,84.1667 119.5,76.8333 119.5,69.5 Z"/></g>
<g><path style="opacity:1" fill="#f0f7fe" d="M 206.5,104.5 C 206.5,111.5 206.5,118.5 206.5,125.5C 200.642,125.178 194.975,125.511 189.5,126.5C 189.5,131.833 189.5,137.167 189.5,142.5C 195.833,142.5 202.167,142.5 208.5,142.5C 208.5,149.833 208.5,157.167 208.5,164.5C 194.5,164.5 180.5,164.5 166.5,164.5C 166.5,132.833 166.5,101.167 166.5,69.5C 180.167,69.5 193.833,69.5 207.5,69.5C 207.5,76.8333 207.5,84.1667 207.5,91.5C 201.5,91.5 195.5,91.5 189.5,91.5C 189.5,95.8333 189.5,100.167 189.5,104.5C 195.167,104.5 200.833,104.5 206.5,104.5 Z"/></g>
<g><path style="opacity:1" fill="#f9fcfe" d="M 213.5,69.5 C 220.833,69.5 228.167,69.5 235.5,69.5C 235.5,94.5 235.5,119.5 235.5,144.5C 241.833,144.5 248.167,144.5 254.5,144.5C 254.5,151.167 254.5,157.833 254.5,164.5C 240.833,164.5 227.167,164.5 213.5,164.5C 213.5,132.833 213.5,101.167 213.5,69.5 Z"/></g>
<g><path style="opacity:1" fill="#727475" d="M 258.5,69.5 C 271.833,69.5 285.167,69.5 298.5,69.5C 298.5,76.8333 298.5,84.1667 298.5,91.5C 292.5,91.5 286.5,91.5 280.5,91.5C 280.5,94.8333 280.5,98.1667 280.5,101.5C 286.167,101.5 291.833,101.5 297.5,101.5C 297.5,108.833 297.5,116.167 297.5,123.5C 291.833,123.5 286.167,123.5 280.5,123.5C 280.5,137.167 280.5,150.833 280.5,164.5C 273.167,164.5 265.833,164.5 258.5,164.5C 258.5,132.833 258.5,101.167 258.5,69.5 Z"/></g>
<g><path style="opacity:1" fill="#717578" d="M 302.5,69.5 C 309.5,69.5 316.5,69.5 323.5,69.5C 323.5,101.167 323.5,132.833 323.5,164.5C 316.5,164.5 309.5,164.5 302.5,164.5C 302.5,132.833 302.5,101.167 302.5,69.5 Z"/></g>
<g><path style="opacity:1" fill="#727375" d="M 355.5,87.5 C 355.687,89.5643 356.187,91.5643 357,93.5C 357.5,85.5069 357.666,77.5069 357.5,69.5C 364.5,69.5 371.5,69.5 378.5,69.5C 378.5,101.167 378.5,132.833 378.5,164.5C 371.167,164.5 363.833,164.5 356.5,164.5C 355.584,155.418 354.084,146.418 352,137.5C 351.5,146.494 351.334,155.494 351.5,164.5C 344.167,164.5 336.833,164.5 329.5,164.5C 329.5,132.833 329.5,101.167 329.5,69.5C 337.167,69.5 344.833,69.5 352.5,69.5C 353.755,75.4449 354.755,81.4449 355.5,87.5 Z"/></g>
<g><path style="opacity:1" fill="#5c8ab0" d="M 357.5,69.5 C 357.666,77.5069 357.5,85.5069 357,93.5C 356.187,91.5643 355.687,89.5643 355.5,87.5C 356.167,81.5 356.833,75.5 357.5,69.5 Z"/></g>
<g><path style="opacity:1" fill="#717579" d="M 385.5,69.5 C 396.505,69.3335 407.505,69.5002 418.5,70C 427.629,72.7997 432.796,78.9664 434,88.5C 434.667,106.5 434.667,124.5 434,142.5C 433.72,154.966 427.553,162.133 415.5,164C 405.506,164.5 395.506,164.666 385.5,164.5C 385.5,132.833 385.5,101.167 385.5,69.5 Z"/></g>
<g><path style="opacity:1" fill="#f9fcfe" d="M 464.5,153.5 C 464.5,152.167 464.5,150.833 464.5,149.5C 461.615,149.194 458.948,149.527 456.5,150.5C 456.167,155.167 455.833,159.833 455.5,164.5C 448.5,164.5 441.5,164.5 434.5,164.5C 437.287,132.844 439.954,101.178 442.5,69.5C 454.167,69.5 465.833,69.5 477.5,69.5C 480.449,101.173 483.449,132.839 486.5,164.5C 479.5,164.5 472.5,164.5 465.5,164.5C 465.058,160.846 464.724,157.179 464.5,153.5 Z"/></g>
<g><path style="opacity:1" fill="#44a5f5" d="M 30.5,73.5 C 30.5,84.5 30.5,95.5 30.5,106.5C 35.0323,106.818 39.3656,106.485 43.5,105.5C 43.5,94.8333 43.5,84.1667 43.5,73.5C 48.1667,73.5 52.8333,73.5 57.5,73.5C 57.5,102.5 57.5,131.5 57.5,160.5C 52.8333,160.5 48.1667,160.5 43.5,160.5C 43.5,146.833 43.5,133.167 43.5,119.5C 39.3656,118.515 35.0323,118.182 30.5,118.5C 30.5,132.5 30.5,146.5 30.5,160.5C 25.8333,160.5 21.1667,160.5 16.5,160.5C 16.5,131.5 16.5,102.5 16.5,73.5C 21.1667,73.5 25.8333,73.5 30.5,73.5 Z"/></g>
<g><path style="opacity:1" fill="#abd6fa" d="M 30.5,73.5 C 31.4944,83.9869 31.8278,94.6536 31.5,105.5C 35.5,105.5 39.5,105.5 43.5,105.5C 39.3656,106.485 35.0323,106.818 30.5,106.5C 30.5,95.5 30.5,84.5 30.5,73.5 Z"/></g>
<g><path style="opacity:1" fill="#45a6f5" d="M 86.5,72.5 C 96.1533,71.1014 103.987,74.1014 110,81.5C 110.973,83.3921 111.64,85.3921 112,87.5C 112.667,106.5 112.667,125.5 112,144.5C 108.719,157.899 100.219,163.399 86.5,161C 78.1516,158.648 73.3183,153.148 72,144.5C 71.3333,125.5 71.3333,106.5 72,87.5C 73.69,79.3119 78.5233,74.3119 86.5,72.5 Z"/></g>
<g><path style="opacity:1" fill="#42a5f5" d="M 134.5,160.5 C 134.5,135.833 134.5,111.167 134.5,86.5C 130.833,86.5 127.167,86.5 123.5,86.5C 123.5,82.1667 123.5,77.8333 123.5,73.5C 135.5,73.5 147.5,73.5 159.5,73.5C 159.5,77.8333 159.5,82.1667 159.5,86.5C 155.833,86.5 152.167,86.5 148.5,86.5C 148.5,111.167 148.5,135.833 148.5,160.5C 143.833,160.5 139.167,160.5 134.5,160.5 Z"/></g>
<g><path style="opacity:1" fill="#43a5f5" d="M 171.5,73.5 C 182.167,73.5 192.833,73.5 203.5,73.5C 203.5,77.8333 203.5,82.1667 203.5,86.5C 197.5,86.5 191.5,86.5 185.5,86.5C 185.5,93.8333 185.5,101.167 185.5,108.5C 191.167,108.5 196.833,108.5 202.5,108.5C 202.5,112.833 202.5,117.167 202.5,121.5C 196.833,121.5 191.167,121.5 185.5,121.5C 185.5,129.833 185.5,138.167 185.5,146.5C 191.833,146.5 198.167,146.5 204.5,146.5C 204.5,151.167 204.5,155.833 204.5,160.5C 193.5,160.5 182.5,160.5 171.5,160.5C 171.5,131.5 171.5,102.5 171.5,73.5 Z"/></g>
<g><path style="opacity:1" fill="#42a5f5" d="M 231.5,148.5 C 237.31,149.49 243.31,149.823 249.5,149.5C 249.5,153.167 249.5,156.833 249.5,160.5C 238.833,160.5 228.167,160.5 217.5,160.5C 217.5,131.5 217.5,102.5 217.5,73.5C 222.167,73.5 226.833,73.5 231.5,73.5C 231.5,98.5 231.5,123.5 231.5,148.5 Z"/></g>
<g><path style="opacity:1" fill="#45a2ef" d="M 261.5,73.5 C 272.5,73.5 283.5,73.5 294.5,73.5C 294.5,78.1667 294.5,82.8333 294.5,87.5C 288.5,87.5 282.5,87.5 276.5,87.5C 276.5,93.5 276.5,99.5 276.5,105.5C 282.167,105.5 287.833,105.5 293.5,105.5C 293.5,110.167 293.5,114.833 293.5,119.5C 287.833,119.5 282.167,119.5 276.5,119.5C 276.5,133.167 276.5,146.833 276.5,160.5C 271.5,160.5 266.5,160.5 261.5,160.5C 261.5,131.5 261.5,102.5 261.5,73.5 Z"/></g>
<g><path style="opacity:1" fill="#42a5f5" d="M 306.5,73.5 C 310.833,73.5 315.167,73.5 319.5,73.5C 319.5,102.5 319.5,131.5 319.5,160.5C 315.167,160.5 310.833,160.5 306.5,160.5C 306.5,131.5 306.5,102.5 306.5,73.5 Z"/></g>
<g><path style="opacity:1" fill="#43a4f3" d="M 356.5,114.5 C 357.919,115.451 359.585,115.784 361.5,115.5C 361.5,101.5 361.5,87.5 361.5,73.5C 365.833,73.5 370.167,73.5 374.5,73.5C 374.5,102.5 374.5,131.5 374.5,160.5C 369.57,160.803 364.737,160.469 360,159.5C 357.1,145.166 354.266,130.833 351.5,116.5C 350.167,116.5 348.833,116.5 347.5,116.5C 347.5,131.167 347.5,145.833 347.5,160.5C 342.833,160.5 338.167,160.5 333.5,160.5C 333.5,131.5 333.5,102.5 333.5,73.5C 338.833,73.5 344.167,73.5 349.5,73.5C 351.942,87.1542 354.276,100.821 356.5,114.5 Z"/></g>
<g><path style="opacity:1" fill="#5c8aaf" d="M 361.5,73.5 C 361.5,87.5 361.5,101.5 361.5,115.5C 359.585,115.784 357.919,115.451 356.5,114.5C 357.833,114.5 359.167,114.5 360.5,114.5C 360.171,100.656 360.504,86.9898 361.5,73.5 Z"/></g>
<g><path style="opacity:1" fill="#43a4f2" d="M 389.5,73.5 C 398.839,73.3335 408.173,73.5002 417.5,74C 425.621,76.3747 429.788,81.8747 430,90.5C 430.667,107.833 430.667,125.167 430,142.5C 429.662,151.727 425.162,157.56 416.5,160C 407.506,160.5 398.506,160.666 389.5,160.5C 389.5,131.5 389.5,102.5 389.5,73.5 Z"/></g>
<g><path style="opacity:1" fill="#47a6f5" d="M 468.5,150.5 C 468.5,148.833 468.5,147.167 468.5,145.5C 463.167,145.5 457.833,145.5 452.5,145.5C 452.5,147.167 452.5,148.833 452.5,150.5C 452.5,153.833 452.5,157.167 452.5,160.5C 447.833,160.5 443.167,160.5 438.5,160.5C 440.969,131.481 443.635,102.481 446.5,73.5C 455.833,73.5 465.167,73.5 474.5,73.5C 476.454,102.575 479.121,131.575 482.5,160.5C 477.833,160.5 473.167,160.5 468.5,160.5C 468.5,157.167 468.5,153.833 468.5,150.5 Z"/></g>
<g><path style="opacity:1" fill="#f8fbfe" d="M 88.5,85.5 C 93.2697,84.4646 96.4363,86.1312 98,90.5C 98.6667,107.833 98.6667,125.167 98,142.5C 96.7895,147.71 93.6228,149.544 88.5,148C 87.5399,146.581 86.7065,145.081 86,143.5C 85.3333,125.5 85.3333,107.5 86,89.5C 87.4813,88.5291 88.3146,87.1958 88.5,85.5 Z"/></g>
<g><path style="opacity:1" fill="#727476" d="M 403.5,85.5 C 407.839,84.8461 411.673,85.8461 415,88.5C 415.667,107.167 415.667,125.833 415,144.5C 414.626,145.416 414.126,146.25 413.5,147C 410.274,148.199 406.941,148.699 403.5,148.5C 403.5,127.5 403.5,106.5 403.5,85.5 Z"/></g>
<g><path style="opacity:1" fill="#f6fbfe" d="M 457.5,84.5 C 459.167,84.5 460.833,84.5 462.5,84.5C 463.593,101.52 464.926,118.52 466.5,135.5C 462.5,135.5 458.5,135.5 454.5,135.5C 455.305,118.485 456.305,101.485 457.5,84.5 Z"/></g>
<g><path style="opacity:1" fill="#d1e9fc" d="M 123.5,86.5 C 127.167,86.5 130.833,86.5 134.5,86.5C 134.5,111.167 134.5,135.833 134.5,160.5C 133.502,136.339 133.169,112.006 133.5,87.5C 129.958,87.8128 126.625,87.4794 123.5,86.5 Z"/></g>
<g><path style="opacity:1" fill="#52abf5" d="M 90.5,89.5 C 91.8221,89.33 92.9887,89.6634 94,90.5C 94.6667,107.833 94.6667,125.167 94,142.5C 93.0475,144.592 91.7141,144.925 90,143.5C 89.1812,125.426 89.3479,107.426 90.5,89.5 Z"/></g>
<g><path style="opacity:1" fill="#42a4f4" d="M 407.5,89.5 C 408.833,89.5 410.167,89.5 411.5,89.5C 411.667,107.503 411.5,125.503 411,143.5C 409.989,144.337 408.822,144.67 407.5,144.5C 407.5,126.167 407.5,107.833 407.5,89.5 Z"/></g>
<g><path style="opacity:1" fill="#69b4f6" d="M 459.5,110.5 C 461.21,117.256 462.21,124.256 462.5,131.5C 461.167,131.5 459.833,131.5 458.5,131.5C 458.773,124.496 459.106,117.496 459.5,110.5 Z"/></g>
<g><path style="opacity:1" fill="#a3d2fa" d="M 43.5,119.5 C 39.5,119.5 35.5,119.5 31.5,119.5C 31.829,133.344 31.4957,147.01 30.5,160.5C 30.5,146.5 30.5,132.5 30.5,118.5C 35.0323,118.182 39.3656,118.515 43.5,119.5 Z"/></g>
<g><path style="opacity:1" fill="#9bcef9" d="M 206.5,104.5 C 207.492,111.648 207.825,118.981 207.5,126.5C 201.5,126.5 195.5,126.5 189.5,126.5C 194.975,125.511 200.642,125.178 206.5,125.5C 206.5,118.5 206.5,111.5 206.5,104.5 Z"/></g>
<g><path style="opacity:1" fill="#c8e4fc" d="M 468.5,150.5 C 467.566,149.432 467.232,148.099 467.5,146.5C 462.833,146.5 458.167,146.5 453.5,146.5C 453.768,148.099 453.434,149.432 452.5,150.5C 452.5,148.833 452.5,147.167 452.5,145.5C 457.833,145.5 463.167,145.5 468.5,145.5C 468.5,147.167 468.5,148.833 468.5,150.5 Z"/></g>
<g><path style="opacity:1" fill="#a1d1fa" d="M 231.5,148.5 C 237.833,148.5 244.167,148.5 250.5,148.5C 250.817,152.702 250.483,156.702 249.5,160.5C 249.5,156.833 249.5,153.167 249.5,149.5C 243.31,149.823 237.31,149.49 231.5,148.5 Z"/></g>
<g><path style="opacity:1" fill="#85c4f8" d="M 456.5,150.5 C 458.948,149.527 461.615,149.194 464.5,149.5C 464.5,150.833 464.5,152.167 464.5,153.5C 463.596,152.791 463.263,151.791 463.5,150.5C 461.167,150.5 458.833,150.5 456.5,150.5 Z"/></g>
<g><path style="opacity:1" fill="#535453" d="M 33.5,186.5 C 33.5,187.167 33.1667,187.5 32.5,187.5C 28.5,187.5 24.5,187.5 20.5,187.5C 20.5,194.5 20.5,201.5 20.5,208.5C 20.5,209.167 20.1667,209.5 19.5,209.5C 19.5,201.833 19.5,194.167 19.5,186.5C 24.1667,186.5 28.8333,186.5 33.5,186.5 Z"/></g>
<g><path style="opacity:1" fill="#535453" d="M 64.5,209.5 C 63.8333,209.5 63.5,209.167 63.5,208.5C 63.5,201.833 63.5,195.167 63.5,188.5C 62.4324,187.566 61.099,187.232 59.5,187.5C 59.825,195.019 59.4916,202.352 58.5,209.5C 58.5,201.833 58.5,194.167 58.5,186.5C 60.5,186.5 62.5,186.5 64.5,186.5C 64.5,194.167 64.5,201.833 64.5,209.5 Z"/></g>
<g><path style="opacity:1" fill="#535453" d="M 97.5,187.5 C 95.8333,187.5 94.1667,187.5 92.5,187.5C 92.5,194.5 92.5,201.5 92.5,208.5C 92.5,209.167 92.1667,209.5 91.5,209.5C 91.5,201.833 91.5,194.167 91.5,186.5C 93.7354,186.205 95.7354,186.539 97.5,187.5 Z"/></g>
<g><path style="opacity:1" fill="#535556" d="M 113.5,209.5 C 112.833,209.5 112.5,209.167 112.5,208.5C 112.5,201.5 112.5,194.5 112.5,187.5C 111.167,187.5 109.833,187.5 108.5,187.5C 108.666,192.511 108.499,197.511 108,202.5C 106.519,201.529 105.685,200.196 105.5,198.5C 106.117,198.611 106.617,198.944 107,199.5C 107.499,195.179 107.666,190.846 107.5,186.5C 109.5,186.5 111.5,186.5 113.5,186.5C 113.5,194.167 113.5,201.833 113.5,209.5 Z"/></g>
<g><path style="opacity:1" fill="#4c789d" d="M 140.5,186.5 C 140.5,187.167 140.833,187.5 141.5,187.5C 141.5,194.5 141.5,201.5 141.5,208.5C 146.891,209.133 151.891,208.133 156.5,205.5C 155.146,208.328 152.813,209.828 149.5,210C 146.24,210.784 143.073,210.617 140,209.5C 139.178,201.655 139.344,193.989 140.5,186.5 Z"/></g>
<g><path style="opacity:1" fill="#535453" d="M 313.5,209.5 C 312.508,202.352 312.175,195.019 312.5,187.5C 310.901,187.232 309.568,187.566 308.5,188.5C 308.5,191.167 308.5,193.833 308.5,196.5C 305.167,196.5 301.833,196.5 298.5,196.5C 298.5,193.5 298.5,190.5 298.5,187.5C 297.167,187.5 295.833,187.5 294.5,187.5C 294.5,194.5 294.5,201.5 294.5,208.5C 294.5,209.167 294.167,209.5 293.5,209.5C 293.5,201.833 293.5,194.167 293.5,186.5C 295.5,186.5 297.5,186.5 299.5,186.5C 299.5,189.5 299.5,192.5 299.5,195.5C 302.167,195.5 304.833,195.5 307.5,195.5C 307.5,192.5 307.5,189.5 307.5,186.5C 309.5,186.5 311.5,186.5 313.5,186.5C 313.5,194.167 313.5,201.833 313.5,209.5 Z"/></g>
<g><path style="opacity:1" fill="#535658" d="M 403.5,191.5 C 402.833,191.5 402.5,191.167 402.5,190.5C 402.5,189.5 402.5,188.5 402.5,187.5C 397.5,187.5 392.5,187.5 387.5,187.5C 387.5,188.5 387.5,189.5 387.5,190.5C 387.5,191.167 387.167,191.5 386.5,191.5C 386.5,189.833 386.5,188.167 386.5,186.5C 392.167,186.5 397.833,186.5 403.5,186.5C 403.5,188.167 403.5,189.833 403.5,191.5 Z"/></g>
<g><path style="opacity:1" fill="#535453" d="M 428.5,186.5 C 433.167,186.5 437.833,186.5 442.5,186.5C 442.5,188.167 442.5,189.833 442.5,191.5C 441.833,191.5 441.5,191.167 441.5,190.5C 441.5,189.5 441.5,188.5 441.5,187.5C 437.5,187.5 433.5,187.5 429.5,187.5C 428.833,187.5 428.5,187.167 428.5,186.5 Z"/></g>
<g><path style="opacity:1" fill="#535453" d="M 469.5,187.5 C 469.5,187.167 469.5,186.833 469.5,186.5C 471.167,186.5 472.833,186.5 474.5,186.5C 474.5,192.5 474.5,198.5 474.5,204.5C 476.833,204.5 479.167,204.5 481.5,204.5C 481.5,205.167 481.167,205.5 480.5,205.5C 478.167,205.5 475.833,205.5 473.5,205.5C 473.5,199.5 473.5,193.5 473.5,187.5C 472.167,187.5 470.833,187.5 469.5,187.5 Z"/></g>
<g><path style="opacity:1" fill="#526575" d="M 140.5,186.5 C 153.71,184.142 159.877,189.476 159,202.5C 158.623,203.942 157.79,204.942 156.5,205.5C 160.394,192.38 155.394,186.38 141.5,187.5C 140.833,187.5 140.5,187.167 140.5,186.5 Z"/></g>
<g><path style="opacity:1" fill="#43a1ee" d="M 358.5,189.5 C 362.958,196.374 362.292,202.707 356.5,208.5C 343.747,210.249 338.914,204.916 342,192.5C 346.66,187.095 352.16,186.095 358.5,189.5 Z"/></g>
<g><path style="opacity:1" fill="#439fea" d="M 32.5,187.5 C 32.5,188.5 32.5,189.5 32.5,190.5C 29.6146,190.194 26.9479,190.527 24.5,191.5C 24.5,193.167 24.5,194.833 24.5,196.5C 26.8333,196.5 29.1667,196.5 31.5,196.5C 31.5,197.5 31.5,198.5 31.5,199.5C 28.9407,199.198 26.6074,199.532 24.5,200.5C 24.5,203.167 24.5,205.833 24.5,208.5C 23.1667,208.5 21.8333,208.5 20.5,208.5C 20.5,201.5 20.5,194.5 20.5,187.5C 24.5,187.5 28.5,187.5 32.5,187.5 Z"/></g>
<g><path style="opacity:1" fill="#488ac0" d="M 63.5,188.5 C 62.5,188.5 61.5,188.5 60.5,188.5C 60.5,195.167 60.5,201.833 60.5,208.5C 61.5,208.5 62.5,208.5 63.5,208.5C 63.5,209.167 63.8333,209.5 64.5,209.5C 62.5,210.833 60.5,210.833 58.5,209.5C 59.4916,202.352 59.825,195.019 59.5,187.5C 61.099,187.232 62.4324,187.566 63.5,188.5 Z"/></g>
<g><path style="opacity:1" fill="#42a5f5" d="M 63.5,188.5 C 63.5,195.167 63.5,201.833 63.5,208.5C 62.5,208.5 61.5,208.5 60.5,208.5C 60.5,201.833 60.5,195.167 60.5,188.5C 61.5,188.5 62.5,188.5 63.5,188.5 Z"/></g>
<g><path style="opacity:1" fill="#42a2f0" d="M 97.5,187.5 C 97.427,189.027 98.0937,190.027 99.5,190.5C 99.7376,192.404 100.738,193.738 102.5,194.5C 102.738,196.404 103.738,197.738 105.5,198.5C 105.685,200.196 106.519,201.529 108,202.5C 108.499,197.511 108.666,192.511 108.5,187.5C 109.833,187.5 111.167,187.5 112.5,187.5C 112.5,194.5 112.5,201.5 112.5,208.5C 110.801,208.66 109.134,208.494 107.5,208C 106.672,206.008 105.339,204.508 103.5,203.5C 103.262,201.596 102.262,200.262 100.5,199.5C 99.925,197.589 98.925,195.922 97.5,194.5C 97.44,193.957 97.1067,193.624 96.5,193.5C 95.5059,198.456 95.1725,203.456 95.5,208.5C 94.5,208.5 93.5,208.5 92.5,208.5C 92.5,201.5 92.5,194.5 92.5,187.5C 94.1667,187.5 95.8333,187.5 97.5,187.5 Z"/></g>
<g><path style="opacity:1" fill="#516373" d="M 97.5,187.5 C 98.9063,187.973 99.573,188.973 99.5,190.5C 98.0937,190.027 97.427,189.027 97.5,187.5 Z"/></g>
<g><path style="opacity:1" fill="#43a2ef" d="M 141.5,187.5 C 155.394,186.38 160.394,192.38 156.5,205.5C 151.891,208.133 146.891,209.133 141.5,208.5C 141.5,201.5 141.5,194.5 141.5,187.5 Z"/></g>
<g><path style="opacity:1" fill="#43a1ed" d="M 308.5,188.5 C 309.5,188.5 310.5,188.5 311.5,188.5C 311.5,195.167 311.5,201.833 311.5,208.5C 310.5,208.5 309.5,208.5 308.5,208.5C 308.5,205.5 308.5,202.5 308.5,199.5C 304.958,199.187 301.625,199.521 298.5,200.5C 298.5,203.167 298.5,205.833 298.5,208.5C 297.167,208.5 295.833,208.5 294.5,208.5C 294.5,201.5 294.5,194.5 294.5,187.5C 295.833,187.5 297.167,187.5 298.5,187.5C 298.5,190.5 298.5,193.5 298.5,196.5C 301.833,196.5 305.167,196.5 308.5,196.5C 308.5,193.833 308.5,191.167 308.5,188.5 Z"/></g>
<g><path style="opacity:1" fill="#488ac0" d="M 308.5,188.5 C 309.568,187.566 310.901,187.232 312.5,187.5C 312.175,195.019 312.508,202.352 313.5,209.5C 311.5,210.833 309.5,210.833 307.5,209.5C 308.167,209.5 308.5,209.167 308.5,208.5C 309.5,208.5 310.5,208.5 311.5,208.5C 311.5,201.833 311.5,195.167 311.5,188.5C 310.5,188.5 309.5,188.5 308.5,188.5 Z"/></g>
<g><path style="opacity:1" fill="#51677b" d="M 358.5,189.5 C 352.16,186.095 346.66,187.095 342,192.5C 338.914,204.916 343.747,210.249 356.5,208.5C 349.62,212.001 344.12,210.334 340,203.5C 338.003,191.165 343.17,185.665 355.5,187C 356.942,187.377 357.942,188.21 358.5,189.5 Z"/></g>
<g><path style="opacity:1" fill="#43a2ef" d="M 402.5,190.5 C 400.5,190.5 398.5,190.5 396.5,190.5C 396.5,196.5 396.5,202.5 396.5,208.5C 395.5,208.5 394.5,208.5 393.5,208.5C 393.5,202.5 393.5,196.5 393.5,190.5C 391.5,190.5 389.5,190.5 387.5,190.5C 387.5,189.5 387.5,188.5 387.5,187.5C 392.5,187.5 397.5,187.5 402.5,187.5C 402.5,188.5 402.5,189.5 402.5,190.5 Z"/></g>
<g><path style="opacity:1" fill="#4f6d87" d="M 428.5,186.5 C 428.5,187.167 428.833,187.5 429.5,187.5C 429.5,194.5 429.5,201.5 429.5,208.5C 429.5,209.167 429.167,209.5 428.5,209.5C 427.167,201.833 427.167,194.167 428.5,186.5 Z"/></g>
<g><path style="opacity:1" fill="#43a0ec" d="M 429.5,187.5 C 433.5,187.5 437.5,187.5 441.5,187.5C 441.5,188.5 441.5,189.5 441.5,190.5C 438.5,190.5 435.5,190.5 432.5,190.5C 432.205,192.735 432.539,194.735 433.5,196.5C 435.833,196.5 438.167,196.5 440.5,196.5C 440.5,197.5 440.5,198.5 440.5,199.5C 437.833,199.5 435.167,199.5 432.5,199.5C 432.205,201.735 432.539,203.735 433.5,205.5C 436.167,205.5 438.833,205.5 441.5,205.5C 441.5,206.5 441.5,207.5 441.5,208.5C 437.5,208.5 433.5,208.5 429.5,208.5C 429.5,201.5 429.5,194.5 429.5,187.5 Z"/></g>
<g><path style="opacity:1" fill="#439fea" d="M 469.5,187.5 C 470.833,187.5 472.167,187.5 473.5,187.5C 473.5,193.5 473.5,199.5 473.5,205.5C 475.833,205.5 478.167,205.5 480.5,205.5C 480.5,206.5 480.5,207.5 480.5,208.5C 476.833,208.5 473.167,208.5 469.5,208.5C 469.5,201.5 469.5,194.5 469.5,187.5 Z"/></g>
<g><path style="opacity:1" fill="#4f6d86" d="M 33.5,186.5 C 34.807,188.223 34.807,190.057 33.5,192C 30.854,192.497 28.1873,192.664 25.5,192.5C 25.5,191.833 25.1667,191.5 24.5,191.5C 26.9479,190.527 29.6146,190.194 32.5,190.5C 32.5,189.5 32.5,188.5 32.5,187.5C 33.1667,187.5 33.5,187.167 33.5,186.5 Z"/></g>
<g><path style="opacity:1" fill="#4f6f8b" d="M 441.5,190.5 C 441.5,191.167 441.833,191.5 442.5,191.5C 440.052,192.473 437.385,192.806 434.5,192.5C 434.5,193.5 434.5,194.5 434.5,195.5C 433.833,195.5 433.5,195.833 433.5,196.5C 432.539,194.735 432.205,192.735 432.5,190.5C 435.5,190.5 438.5,190.5 441.5,190.5 Z"/></g>
<g><path style="opacity:1" fill="#535453" d="M 24.5,191.5 C 25.1667,191.5 25.5,191.833 25.5,192.5C 25.5,193.5 25.5,194.5 25.5,195.5C 27.8333,195.5 30.1667,195.5 32.5,195.5C 32.5,197.167 32.5,198.833 32.5,200.5C 31.8333,200.5 31.5,200.167 31.5,199.5C 31.5,198.5 31.5,197.5 31.5,196.5C 29.1667,196.5 26.8333,196.5 24.5,196.5C 24.5,194.833 24.5,193.167 24.5,191.5 Z"/></g>
<g><path style="opacity:1" fill="#506c84" d="M 151.5,192.5 C 153.884,193.425 154.884,195.258 154.5,198C 154.027,204.087 150.693,206.587 144.5,205.5C 144.5,200.5 144.5,195.5 144.5,190.5C 147.228,190.171 149.562,190.837 151.5,192.5 Z"/></g>
<g><path style="opacity:1" fill="#526577" d="M 354.5,192.5 C 351.763,192.401 349.096,192.735 346.5,193.5C 347.492,191.974 348.992,191.307 351,191.5C 352.385,191.514 353.551,191.848 354.5,192.5 Z"/></g>
<g><path style="opacity:1" fill="#4f6d86" d="M 387.5,190.5 C 389.5,190.5 391.5,190.5 393.5,190.5C 393.5,196.5 393.5,202.5 393.5,208.5C 394.5,208.5 395.5,208.5 396.5,208.5C 397.124,202.591 397.791,197.258 398.5,192.5C 398.5,198.5 398.5,204.5 398.5,210.5C 396.5,210.5 394.5,210.5 392.5,210.5C 392.5,204.5 392.5,198.5 392.5,192.5C 390.265,192.795 388.265,192.461 386.5,191.5C 387.167,191.5 387.5,191.167 387.5,190.5 Z"/></g>
<g><path style="opacity:1" fill="#4a7ba3" d="M 402.5,190.5 C 402.5,191.167 402.833,191.5 403.5,191.5C 402.081,192.451 400.415,192.784 398.5,192.5C 397.791,197.258 397.124,202.591 396.5,208.5C 396.5,202.5 396.5,196.5 396.5,190.5C 398.5,190.5 400.5,190.5 402.5,190.5 Z"/></g>
<g><path style="opacity:1" fill="#51677b" d="M 99.5,190.5 C 101.262,191.262 102.262,192.596 102.5,194.5C 100.738,193.738 99.7376,192.404 99.5,190.5 Z"/></g>
<g><path style="opacity:1" fill="#42a3f1" d="M 151.5,192.5 C 155.234,198.911 153.567,202.911 146.5,204.5C 146.5,200.5 146.5,196.5 146.5,192.5C 148.167,192.5 149.833,192.5 151.5,192.5 Z"/></g>
<g><path style="opacity:1" fill="#42a4f3" d="M 354.5,192.5 C 358.285,198.586 356.785,202.586 350,204.5C 345.466,202.048 344.299,198.381 346.5,193.5C 349.096,192.735 351.763,192.401 354.5,192.5 Z"/></g>
<g><path style="opacity:1" fill="#4988bc" d="M 97.5,194.5 C 96.1667,199.5 96.1667,204.5 97.5,209.5C 95.5,210.833 93.5,210.833 91.5,209.5C 92.1667,209.5 92.5,209.167 92.5,208.5C 93.5,208.5 94.5,208.5 95.5,208.5C 95.1725,203.456 95.5059,198.456 96.5,193.5C 97.1067,193.624 97.44,193.957 97.5,194.5 Z"/></g>
<g><path style="opacity:1" fill="#53575b" d="M 97.5,194.5 C 98.925,195.922 99.925,197.589 100.5,199.5C 99.5416,199.047 98.7083,198.381 98,197.5C 97.5012,201.486 97.3345,205.486 97.5,209.5C 96.1667,204.5 96.1667,199.5 97.5,194.5 Z"/></g>
<g><path style="opacity:1" fill="#50708c" d="M 358.5,189.5 C 363.957,193.914 364.791,199.247 361,205.5C 359.871,207.141 358.371,208.141 356.5,208.5C 362.292,202.707 362.958,196.374 358.5,189.5 Z"/></g>
<g><path style="opacity:1" fill="#535453" d="M 433.5,196.5 C 433.5,195.833 433.833,195.5 434.5,195.5C 436.833,195.5 439.167,195.5 441.5,195.5C 441.5,197.167 441.5,198.833 441.5,200.5C 440.833,200.5 440.5,200.167 440.5,199.5C 440.5,198.5 440.5,197.5 440.5,196.5C 438.167,196.5 435.833,196.5 433.5,196.5 Z"/></g>
<g><path style="opacity:1" fill="#516576" d="M 102.5,194.5 C 104.262,195.262 105.262,196.596 105.5,198.5C 103.738,197.738 102.738,196.404 102.5,194.5 Z"/></g>
<g><path style="opacity:1" fill="#4b7ba2" d="M 24.5,200.5 C 26.6074,199.532 28.9407,199.198 31.5,199.5C 31.5,200.167 31.8333,200.5 32.5,200.5C 30.3926,201.468 28.0593,201.802 25.5,201.5C 25.5,200.833 25.1667,200.5 24.5,200.5 Z"/></g>
<g><path style="opacity:1" fill="#51687d" d="M 235.5,205.5 C 236.931,206.78 237.598,208.447 237.5,210.5C 233.221,211.546 230.555,210.046 229.5,206C 225.231,204.732 222.231,206.066 220.5,210C 218.421,210.808 216.421,210.641 214.5,209.5C 216.901,202.462 219.401,195.462 222,188.5C 224.179,186.363 226.679,186.029 229.5,187.5C 232.105,193.314 234.105,199.314 235.5,205.5 Z"/></g>
<g><path style="opacity:1" fill="#43a1ed" d="M 235.5,205.5 C 235.5,206.5 235.5,207.5 235.5,208.5C 234.167,208.5 232.833,208.5 231.5,208.5C 231.427,205.05 229.594,203.717 226,204.5C 222.406,203.717 220.573,205.05 220.5,208.5C 219.022,208.762 217.689,208.429 216.5,207.5C 219.235,200.96 221.569,194.293 223.5,187.5C 225.288,187.215 226.955,187.548 228.5,188.5C 230.391,194.456 232.724,200.122 235.5,205.5 Z"/></g>
<g><path style="opacity:1" fill="#526576" d="M 225.5,191.5 C 227.785,194.335 229.118,197.668 229.5,201.5C 227.076,201.808 224.743,201.474 222.5,200.5C 223.705,197.55 224.705,194.55 225.5,191.5 Z"/></g>
<g><path style="opacity:1" fill="#42a2ef" d="M 225.5,195.5 C 226.931,196.78 227.598,198.447 227.5,200.5C 226.5,200.5 225.5,200.5 224.5,200.5C 224.629,198.784 224.962,197.117 225.5,195.5 Z"/></g>
<g><path style="opacity:1" fill="#50718e" d="M 298.5,200.5 C 301.625,199.521 304.958,199.187 308.5,199.5C 308.5,202.5 308.5,205.5 308.5,208.5C 308.5,209.167 308.167,209.5 307.5,209.5C 307.5,206.833 307.5,204.167 307.5,201.5C 304.833,201.5 302.167,201.5 299.5,201.5C 299.5,200.833 299.167,200.5 298.5,200.5 Z"/></g>
<g><path style="opacity:1" fill="#4b7aa1" d="M 440.5,199.5 C 440.5,200.167 440.833,200.5 441.5,200.5C 439.393,201.468 437.059,201.802 434.5,201.5C 433.479,201.899 433.146,203.233 433.5,205.5C 432.539,203.735 432.205,201.735 432.5,199.5C 435.167,199.5 437.833,199.5 440.5,199.5 Z"/></g>
<g><path style="opacity:1" fill="#516576" d="M 100.5,199.5 C 102.262,200.262 103.262,201.596 103.5,203.5C 101.738,202.738 100.738,201.404 100.5,199.5 Z"/></g>
<g><path style="opacity:1" fill="#4f7392" d="M 354.5,192.5 C 356.411,192.574 357.578,193.574 358,195.5C 358.67,203.161 355.17,206.327 347.5,205C 342.995,201.286 342.662,197.453 346.5,193.5C 344.299,198.381 345.466,202.048 350,204.5C 356.785,202.586 358.285,198.586 354.5,192.5 Z"/></g>
<g><path style="opacity:1" fill="#53575a" d="M 434.5,201.5 C 434.5,202.5 434.5,203.5 434.5,204.5C 437.167,204.5 439.833,204.5 442.5,204.5C 442.5,206.167 442.5,207.833 442.5,209.5C 441.833,209.5 441.5,209.167 441.5,208.5C 441.5,207.5 441.5,206.5 441.5,205.5C 438.833,205.5 436.167,205.5 433.5,205.5C 433.146,203.233 433.479,201.899 434.5,201.5 Z"/></g>
<g><path style="opacity:1" fill="#516d87" d="M 24.5,200.5 C 25.1667,200.5 25.5,200.833 25.5,201.5C 25.5,204.5 25.5,207.5 25.5,210.5C 23.2646,210.795 21.2646,210.461 19.5,209.5C 20.1667,209.5 20.5,209.167 20.5,208.5C 21.8333,208.5 23.1667,208.5 24.5,208.5C 24.5,205.833 24.5,203.167 24.5,200.5 Z"/></g>
<g><path style="opacity:1" fill="#4e7595" d="M 103.5,203.5 C 105.339,204.508 106.672,206.008 107.5,208C 109.134,208.494 110.801,208.66 112.5,208.5C 112.5,209.167 112.833,209.5 113.5,209.5C 108.084,211.473 104.75,209.473 103.5,203.5 Z"/></g>
<g><path style="opacity:1" fill="#516d87" d="M 298.5,200.5 C 299.167,200.5 299.5,200.833 299.5,201.5C 299.5,204.5 299.5,207.5 299.5,210.5C 297.265,210.795 295.265,210.461 293.5,209.5C 294.167,209.5 294.5,209.167 294.5,208.5C 295.833,208.5 297.167,208.5 298.5,208.5C 298.5,205.833 298.5,203.167 298.5,200.5 Z"/></g>
<g><path style="opacity:1" fill="#4b7ba2" d="M 429.5,208.5 C 433.5,208.5 437.5,208.5 441.5,208.5C 441.5,209.167 441.833,209.5 442.5,209.5C 437.833,210.833 433.167,210.833 428.5,209.5C 429.167,209.5 429.5,209.167 429.5,208.5 Z"/></g>
<g><path style="opacity:1" fill="#4d7494" d="M 469.5,186.5 C 469.5,186.833 469.5,187.167 469.5,187.5C 469.5,194.5 469.5,201.5 469.5,208.5C 473.167,208.5 476.833,208.5 480.5,208.5C 480.5,207.5 480.5,206.5 480.5,205.5C 481.167,205.5 481.5,205.167 481.5,204.5C 482.461,206.265 482.795,208.265 482.5,210.5C 477.833,210.5 473.167,210.5 468.5,210.5C 468.174,202.316 468.508,194.316 469.5,186.5 Z"/></g>
</svg>
