<?xml version="1.0" encoding="UTF-8"?>
<!DOCTYPE svg PUBLIC "-//W3C//DTD SVG 1.1//EN" "http://www.w3.org/Graphics/SVG/1.1/DTD/svg11.dtd">
<svg xmlns="http://www.w3.org/2000/svg" version="1.1" width="330px" height="108px" style="shape-rendering:geometricPrecision; text-rendering:geometricPrecision; image-rendering:optimizeQuality; fill-rule:evenodd; clip-rule:evenodd" xmlns:xlink="http://www.w3.org/1999/xlink">
<g><path style="opacity:0.061" fill="#ebe9e7" d="M 57.5,8.5 C 61.2896,7.09761 64.9563,7.43095 68.5,9.5C 64.8648,8.88575 61.1981,8.55241 57.5,8.5 Z"/></g>
<g><path style="opacity:0.303" fill="#eecab4" d="M 40.5,9.5 C 40.1667,9.5 39.8333,9.5 39.5,9.5C 35.8333,9.5 32.1667,9.5 28.5,9.5C 28.8245,16.6866 28.4912,23.6866 27.5,30.5C 27.5,30.1667 27.5,29.8333 27.5,29.5C 27.5,22.5 27.5,15.5 27.5,8.5C 31.0592,8.71554 34.5592,8.3822 38,7.5C 39.301,7.63874 40.1344,8.30541 40.5,9.5 Z"/></g>
<g><path style="opacity:0.356" fill="#c5e2b8" d="M 168.5,9.5 C 176.833,8.16667 185.167,8.16667 193.5,9.5C 193.815,13.3714 193.482,17.0381 192.5,20.5C 192.5,16.8333 192.5,13.1667 192.5,9.5C 184.833,9.5 177.167,9.5 169.5,9.5C 169.167,9.5 168.833,9.5 168.5,9.5 Z"/></g>
<g><path style="opacity:0.326" fill="#add7f1" d="M 292.5,9.5 C 299.313,8.50881 306.313,8.17547 313.5,8.5C 313.5,10.1667 313.5,11.8333 313.5,13.5C 312.566,12.4324 312.232,11.099 312.5,9.5C 305.833,9.5 299.167,9.5 292.5,9.5 Z"/></g>
<g><path style="opacity:0.996" fill="#fe904c" d="M 16.5,9.5 C 18.5,9.5 20.5,9.5 22.5,9.5C 22.5,16.5 22.5,23.5 22.5,30.5C 24.1667,30.5 25.8333,30.5 27.5,30.5C 28.4912,23.6866 28.8245,16.6866 28.5,9.5C 32.1667,9.5 35.8333,9.5 39.5,9.5C 39.5,29.1667 39.5,48.8333 39.5,68.5C 35.8333,68.5 32.1667,68.5 28.5,68.5C 28.5,59.5 28.5,50.5 28.5,41.5C 26.2646,41.2053 24.2646,41.5386 22.5,42.5C 22.5,51.1667 22.5,59.8333 22.5,68.5C 18.5,68.5 14.5,68.5 10.5,68.5C 10.5,50.8333 10.5,33.1667 10.5,15.5C 11.4777,12.5222 13.4777,10.5222 16.5,9.5 Z"/></g>
<g><path style="opacity:0.999" fill="#fd924f" d="M 57.5,8.5 C 61.1981,8.55241 64.8648,8.88575 68.5,9.5C 69.4916,9.32842 70.1583,9.66175 70.5,10.5C 71.1667,11.8333 72.1667,12.8333 73.5,13.5C 75.8141,29.7401 76.1474,46.0735 74.5,62.5C 73.0937,62.9731 72.427,63.9731 72.5,65.5C 71.1979,67.8218 69.1979,69.1551 66.5,69.5C 61.6734,69.7793 57.0068,69.1126 52.5,67.5C 51.8333,66.1667 50.8333,65.1667 49.5,64.5C 47.1663,62.8243 46.1663,60.491 46.5,57.5C 46.2377,43.4707 46.571,29.4707 47.5,15.5C 49.8333,13.8333 51.8333,11.8333 53.5,9.5C 54.5676,8.56552 55.901,8.23219 57.5,8.5 Z M 62.5,20.5 C 63.4129,32.1359 63.7463,43.8025 63.5,55.5C 62.5326,56.8062 61.1993,57.4729 59.5,57.5C 59.3335,45.4954 59.5001,33.4954 60,21.5C 60.6708,20.7476 61.5041,20.4142 62.5,20.5 Z"/></g>
<g><path style="opacity:0.024" fill="#e9e6e4" d="M 70.5,10.5 C 72.5,10.5 73.5,11.5 73.5,13.5C 72.1667,12.8333 71.1667,11.8333 70.5,10.5 Z"/></g>
<g><path style="opacity:0.999" fill="#fe924f" d="M 80.5,9.5 C 89.1667,9.5 97.8333,9.5 106.5,9.5C 106.5,13.1667 106.5,16.8333 106.5,20.5C 104.167,20.5 101.833,20.5 99.5,20.5C 99.5,36.5 99.5,52.5 99.5,68.5C 95.5,68.5 91.5,68.5 87.5,68.5C 87.5,52.5 87.5,36.5 87.5,20.5C 85.1667,20.5 82.8333,20.5 80.5,20.5C 79.1667,16.8333 79.1667,13.1667 80.5,9.5 Z"/></g>
<g><path style="opacity:1" fill="#fe914e" d="M 112.5,9.5 C 120.167,9.5 127.833,9.5 135.5,9.5C 135.5,13.1667 135.5,16.8333 135.5,20.5C 131.5,20.5 127.5,20.5 123.5,20.5C 123.5,24.5 123.5,28.5 123.5,32.5C 127.5,32.5 131.5,32.5 135.5,32.5C 136.833,36.1667 136.833,39.8333 135.5,43.5C 131.5,43.5 127.5,43.5 123.5,43.5C 123.181,48.3633 123.514,53.03 124.5,57.5C 128.5,57.5 132.5,57.5 136.5,57.5C 136.5,61.1667 136.5,64.8333 136.5,68.5C 128.5,68.5 120.5,68.5 112.5,68.5C 112.5,48.8333 112.5,29.1667 112.5,9.5 Z"/></g>
<g><path style="opacity:1" fill="#fd914e" d="M 154.5,9.5 C 154.5,25.8333 154.5,42.1667 154.5,58.5C 158.5,58.5 162.5,58.5 166.5,58.5C 166.5,61.8333 166.5,65.1667 166.5,68.5C 158.5,68.5 150.5,68.5 142.5,68.5C 142.5,48.8333 142.5,29.1667 142.5,9.5C 146.5,9.5 150.5,9.5 154.5,9.5 Z"/></g>
<g><path style="opacity:1" fill="#7dd855" d="M 169.5,9.5 C 177.167,9.5 184.833,9.5 192.5,9.5C 192.5,13.1667 192.5,16.8333 192.5,20.5C 188.5,20.5 184.5,20.5 180.5,20.5C 180.187,24.0419 180.521,27.3752 181.5,30.5C 184.833,30.5 188.167,30.5 191.5,30.5C 191.5,34.1667 191.5,37.8333 191.5,41.5C 187.833,41.5 184.167,41.5 180.5,41.5C 180.5,50.5 180.5,59.5 180.5,68.5C 176.833,68.5 173.167,68.5 169.5,68.5C 169.5,48.8333 169.5,29.1667 169.5,9.5 Z"/></g>
<g><path style="opacity:1" fill="#7ed857" d="M 228.5,9.5 C 230.019,17.1291 231.352,24.7958 232.5,32.5C 232.231,34.4286 232.731,36.0953 234,37.5C 234.5,28.1726 234.666,18.8393 234.5,9.5C 238.167,9.5 241.833,9.5 245.5,9.5C 245.5,29.1667 245.5,48.8333 245.5,68.5C 241.5,68.5 237.5,68.5 233.5,68.5C 232.99,63.6086 231.99,58.942 230.5,54.5C 230.119,49.7626 229.286,45.0959 228,40.5C 227.5,49.8274 227.334,59.1607 227.5,68.5C 223.833,68.5 220.167,68.5 216.5,68.5C 216.5,48.8333 216.5,29.1667 216.5,9.5C 220.5,9.5 224.5,9.5 228.5,9.5 Z"/></g>
<g><path style="opacity:1" fill="#7fd859" d="M 273.5,9.5 C 275.38,9.22911 276.713,9.89578 277.5,11.5C 277.833,12.5 278.5,13.1667 279.5,13.5C 279.66,15.153 280.326,16.4863 281.5,17.5C 281.5,31.1667 281.5,44.8333 281.5,58.5C 281.488,63.5047 279.155,66.838 274.5,68.5C 267.167,68.5 259.833,68.5 252.5,68.5C 252.5,48.8333 252.5,29.1667 252.5,9.5C 259.5,9.5 266.5,9.5 273.5,9.5 Z M 266.5,20.5 C 267.117,20.6107 267.617,20.944 268,21.5C 268.5,33.1619 268.667,44.8286 268.5,56.5C 267.5,56.5 266.5,56.5 265.5,56.5C 265.188,44.4197 265.521,32.4197 266.5,20.5 Z"/></g>
<g><path style="opacity:1" fill="#47b6fb" d="M 292.5,9.5 C 299.167,9.5 305.833,9.5 312.5,9.5C 312.232,11.099 312.566,12.4324 313.5,13.5C 315.873,30.2883 317.54,47.2883 318.5,64.5C 318.5,65.8333 318.5,67.1667 318.5,68.5C 314.833,68.5 311.167,68.5 307.5,68.5C 307.737,67.209 307.404,66.209 306.5,65.5C 306.5,63.5 306.5,61.5 306.5,59.5C 303.833,59.5 301.167,59.5 298.5,59.5C 298.5,62.5 298.5,65.5 298.5,68.5C 294.833,68.5 291.167,68.5 287.5,68.5C 287.5,64.8333 287.5,61.1667 287.5,57.5C 287.842,46.4213 288.842,35.4213 290.5,24.5C 291.889,19.7312 292.556,14.7312 292.5,9.5 Z M 303.5,31.5 C 303.353,36.2142 303.686,40.8809 304.5,45.5C 304.179,47.0481 303.179,47.7148 301.5,47.5C 301.5,43.1667 301.5,38.8333 301.5,34.5C 302.167,33.5 302.833,32.5 303.5,31.5 Z"/></g>
<g><path style="opacity:0.004" fill="#e4eae2" d="M 277.5,11.5 C 278.833,11.5 279.5,12.1667 279.5,13.5C 278.5,13.1667 277.833,12.5 277.5,11.5 Z"/></g>
<g><path style="opacity:0.475" fill="#f0cfbc" d="M 53.5,9.5 C 51.8333,11.8333 49.8333,13.8333 47.5,15.5C 48.5,12.5 50.5,10.5 53.5,9.5 Z"/></g>
<g><path style="opacity:0.263" fill="#e4c8b7" d="M 111.5,9.5 C 119.65,8.50728 127.983,8.17395 136.5,8.5C 136.5,12.8333 136.5,17.1667 136.5,21.5C 132.833,21.5 129.167,21.5 125.5,21.5C 125.457,24.5865 125.29,27.5865 125,30.5C 128.603,31.1352 132.103,31.8018 135.5,32.5C 131.5,32.5 127.5,32.5 123.5,32.5C 123.5,28.5 123.5,24.5 123.5,20.5C 127.5,20.5 131.5,20.5 135.5,20.5C 135.5,16.8333 135.5,13.1667 135.5,9.5C 127.833,9.5 120.167,9.5 112.5,9.5C 112.167,9.5 111.833,9.5 111.5,9.5 Z"/></g>
<g><path style="opacity:0.063" fill="#dbe4d6" d="M 279.5,13.5 C 281.104,14.287 281.771,15.6203 281.5,17.5C 280.326,16.4863 279.66,15.153 279.5,13.5 Z"/></g>
<g><path style="opacity:0.073" fill="#d7d7d7" d="M 209.5,69.5 C 209.5,69.1667 209.5,68.8333 209.5,68.5C 209.5,48.8333 209.5,29.1667 209.5,9.5C 205.833,9.5 202.167,9.5 198.5,9.5C 197.503,28.9929 197.17,48.6596 197.5,68.5C 196.669,53.3388 196.169,38.0055 196,22.5C 191.651,22.3209 187.151,22.3209 182.5,22.5C 182.5,24.5 182.5,26.5 182.5,28.5C 186.215,28.423 189.881,28.7564 193.5,29.5C 193.817,33.7016 193.483,37.7016 192.5,41.5C 192.815,37.6286 192.482,33.9619 191.5,30.5C 188.167,30.5 184.833,30.5 181.5,30.5C 181.5,27.5 181.5,24.5 181.5,21.5C 185.371,21.815 189.038,21.4816 192.5,20.5C 193.482,17.0381 193.815,13.3714 193.5,9.5C 199.121,8.64631 204.788,8.31298 210.5,8.5C 210.83,29.0069 210.497,49.3402 209.5,69.5 Z M 194.5,13.5 C 196.616,15.0881 196.949,17.0881 195.5,19.5C 194.534,17.604 194.201,15.604 194.5,13.5 Z"/></g>
<g><path style="opacity:1" fill="#7ed857" d="M 198.5,9.5 C 202.167,9.5 205.833,9.5 209.5,9.5C 209.5,29.1667 209.5,48.8333 209.5,68.5C 205.833,68.5 202.167,68.5 198.5,68.5C 198.5,48.8333 198.5,29.1667 198.5,9.5 Z"/></g>
<g><path style="opacity:0.291" fill="#e2c4b2" d="M 154.5,9.5 C 150.5,9.5 146.5,9.5 142.5,9.5C 142.5,29.1667 142.5,48.8333 142.5,68.5C 150.5,68.5 158.5,68.5 166.5,68.5C 166.5,68.8333 166.5,69.1667 166.5,69.5C 156.876,70.3409 147.542,70.3409 138.5,69.5C 139.209,68.596 140.209,68.2627 141.5,68.5C 141.5,48.5 141.5,28.5 141.5,8.5C 146.032,8.18178 150.366,8.51511 154.5,9.5 Z"/></g>
<g><path style="opacity:0.25" fill="#c2d6b9" d="M 273.5,9.5 C 266.5,9.5 259.5,9.5 252.5,9.5C 252.5,29.1667 252.5,48.8333 252.5,68.5C 259.833,68.5 267.167,68.5 274.5,68.5C 270.609,70.0074 266.442,70.6741 262,70.5C 258.779,70.4587 255.612,70.1253 252.5,69.5C 251.755,51.9997 251.089,34.4997 250.5,17C 250.684,14.135 251.018,11.3016 251.5,8.5C 259.019,8.17503 266.352,8.50837 273.5,9.5 Z"/></g>
<g><path style="opacity:0.037" fill="#d5cfcc" d="M 27.5,29.5 C 27.5,29.8333 27.5,30.1667 27.5,30.5C 25.8333,30.5 24.1667,30.5 22.5,30.5C 22.5,23.5 22.5,16.5 22.5,9.5C 20.5,9.5 18.5,9.5 16.5,9.5C 18.6843,8.73373 21.0177,8.06706 23.5,7.5C 23.8333,8 24.1667,8.5 24.5,9C 23.5551,15.7877 23.2218,22.621 23.5,29.5C 24.8333,29.5 26.1667,29.5 27.5,29.5 Z"/></g>
<g><path style="opacity:0.465" fill="#e5b699" d="M 39.5,9.5 C 39.8333,9.5 40.1667,9.5 40.5,9.5C 40.6666,29.5028 40.5,49.5028 40,69.5C 35.8914,70.556 31.7247,70.556 27.5,69.5C 27.6664,60.8269 27.4998,52.1603 27,43.5C 25.9887,42.6634 24.8221,42.33 23.5,42.5C 23.1667,42.5 22.8333,42.5 22.5,42.5C 24.2646,41.5386 26.2646,41.2053 28.5,41.5C 28.5,50.5 28.5,59.5 28.5,68.5C 32.1667,68.5 35.8333,68.5 39.5,68.5C 39.5,48.8333 39.5,29.1667 39.5,9.5 Z"/></g>
<g><path style="opacity:0.042" fill="#dadcdd" d="M 154.5,9.5 C 155.496,25.3246 155.83,41.3246 155.5,57.5C 159.371,57.185 163.038,57.5184 166.5,58.5C 162.5,58.5 158.5,58.5 154.5,58.5C 154.5,42.1667 154.5,25.8333 154.5,9.5 Z"/></g>
<g><path style="opacity:0.862" fill="#8ed271" d="M 234.5,9.5 C 234.666,18.8393 234.5,28.1726 234,37.5C 232.731,36.0953 232.231,34.4286 232.5,32.5C 233.167,24.8333 233.833,17.1667 234.5,9.5 Z"/></g>
<g><path style="opacity:0.202" fill="#cccfcb" d="M 228.5,8.5 C 229.558,9.60023 230.392,10.9336 231,12.5C 231.309,11.2341 231.809,10.0674 232.5,9C 237.155,8.50085 241.821,8.33418 246.5,8.5C 246.83,29.0069 246.497,49.3402 245.5,69.5C 245.5,69.1667 245.5,68.8333 245.5,68.5C 245.5,48.8333 245.5,29.1667 245.5,9.5C 241.833,9.5 238.167,9.5 234.5,9.5C 233.833,17.1667 233.167,24.8333 232.5,32.5C 231.352,24.7958 230.019,17.1291 228.5,9.5C 228.5,9.16667 228.5,8.83333 228.5,8.5 Z"/></g>
<g><path style="opacity:0.684" fill="#a8cf97" d="M 192.5,20.5 C 189.038,21.4816 185.371,21.815 181.5,21.5C 181.5,24.5 181.5,27.5 181.5,30.5C 180.521,27.3752 180.187,24.0419 180.5,20.5C 184.5,20.5 188.5,20.5 192.5,20.5 Z"/></g>
<g><path style="opacity:0.357" fill="#b1d1e5" d="M 292.5,9.5 C 292.556,14.7312 291.889,19.7312 290.5,24.5C 290.302,19.2502 290.969,14.2502 292.5,9.5 Z"/></g>
<g><path style="opacity:0.267" fill="#9db6c5" d="M 303.5,31.5 C 302.833,32.5 302.167,33.5 301.5,34.5C 301.173,29.456 301.506,24.456 302.5,19.5C 303.491,23.4454 303.824,27.4454 303.5,31.5 Z"/></g>
<g><path style="opacity:0.441" fill="#e6bea5" d="M 73.5,13.5 C 74.9663,14.347 75.7996,15.6803 76,17.5C 76.6667,31.5 76.6667,45.5 76,59.5C 75.7679,60.7375 75.2679,61.7375 74.5,62.5C 76.1474,46.0735 75.8141,29.7401 73.5,13.5 Z"/></g>
<g><path style="opacity:0.073" fill="#d9d6d5" d="M 80.5,20.5 C 82.8333,20.5 85.1667,20.5 87.5,20.5C 87.5,36.5 87.5,52.5 87.5,68.5C 87.5,68.8333 87.5,69.1667 87.5,69.5C 86.5036,53.6754 86.1703,37.6754 86.5,21.5C 84.2646,21.7947 82.2646,21.4614 80.5,20.5 Z"/></g>
<g><path style="opacity:0.17" fill="#e3cabb" d="M 80.5,9.5 C 89.3178,8.5067 98.3178,8.17336 107.5,8.5C 107.5,12.8333 107.5,17.1667 107.5,21.5C 105.167,21.5 102.833,21.5 100.5,21.5C 100.833,37.5139 100.499,53.5139 99.5,69.5C 95.3685,70.7963 91.3685,70.7963 87.5,69.5C 87.5,69.1667 87.5,68.8333 87.5,68.5C 91.5,68.5 95.5,68.5 99.5,68.5C 99.5,52.5 99.5,36.5 99.5,20.5C 101.833,20.5 104.167,20.5 106.5,20.5C 106.5,16.8333 106.5,13.1667 106.5,9.5C 97.8333,9.5 89.1667,9.5 80.5,9.5 Z"/></g>
<g><path style="opacity:0.022" fill="#c8c7c6" d="M 62.5,20.5 C 61.5041,20.4142 60.6708,20.7476 60,21.5C 59.5001,33.4954 59.3335,45.4954 59.5,57.5C 58.3401,45.3403 58.1735,33.0069 59,20.5C 60.2917,19.2089 61.4583,19.2089 62.5,20.5 Z"/></g>
<g><path style="opacity:0.159" fill="#d7c8bf" d="M 47.5,15.5 C 46.571,29.4707 46.2377,43.4707 46.5,57.5C 45.3398,44.6732 45.1731,31.6732 46,18.5C 46.2321,17.2625 46.7321,16.2625 47.5,15.5 Z"/></g>
<g><path style="opacity:0.601" fill="#e6a881" d="M 62.5,20.5 C 63.1174,20.6107 63.6174,20.944 64,21.5C 64.8259,33.0076 64.6593,44.3409 63.5,55.5C 63.7463,43.8025 63.4129,32.1359 62.5,20.5 Z"/></g>
<g><path style="opacity:0.097" fill="#c4c6c3" d="M 264.5,19.5 C 266.144,19.2865 267.644,19.6198 269,20.5C 269.667,32.8333 269.667,45.1667 269,57.5C 267.644,58.3802 266.144,58.7135 264.5,58.5C 264.5,45.5 264.5,32.5 264.5,19.5 Z M 266.5,20.5 C 265.521,32.4197 265.188,44.4197 265.5,56.5C 266.5,56.5 267.5,56.5 268.5,56.5C 268.667,44.8286 268.5,33.1619 268,21.5C 267.617,20.944 267.117,20.6107 266.5,20.5 Z"/></g>
<g><path style="opacity:0.641" fill="#b9d7aa" d="M 228.5,8.5 C 228.5,8.83333 228.5,9.16667 228.5,9.5C 224.5,9.5 220.5,9.5 216.5,9.5C 216.5,29.1667 216.5,48.8333 216.5,68.5C 220.167,68.5 223.833,68.5 227.5,68.5C 227.5,68.8333 227.5,69.1667 227.5,69.5C 223.08,71.1732 218.914,70.8399 215,68.5C 214.203,48.4691 214.369,28.4691 215.5,8.5C 219.833,8.5 224.167,8.5 228.5,8.5 Z"/></g>
<g><path style="opacity:0.059" fill="#dcd7dd" d="M 168.5,9.5 C 168.5,28.8333 168.5,48.1667 168.5,67.5C 167.833,68.1667 167.167,68.8333 166.5,69.5C 166.5,69.1667 166.5,68.8333 166.5,68.5C 166.5,65.1667 166.5,61.8333 166.5,58.5C 167.167,42.1667 167.833,25.8333 168.5,9.5 Z"/></g>
<g><path style="opacity:0.418" fill="#c4d4bc" d="M 281.5,17.5 C 282.28,27.5042 282.947,37.6709 283.5,48C 283.299,51.7231 282.633,55.2231 281.5,58.5C 281.5,44.8333 281.5,31.1667 281.5,17.5 Z"/></g>
<g><path style="opacity:0.065" fill="#b6bfc5" d="M 301.5,34.5 C 301.5,38.8333 301.5,43.1667 301.5,47.5C 303.179,47.7148 304.179,47.0481 304.5,45.5C 305.434,46.5676 305.768,47.901 305.5,49.5C 303.833,49.5 302.167,49.5 300.5,49.5C 300.179,44.3054 300.513,39.3054 301.5,34.5 Z"/></g>
<g><path style="opacity:0.492" fill="#e0b59c" d="M 135.5,43.5 C 132.103,44.1982 128.603,44.8648 125,45.5C 124.502,48.8168 124.335,52.1501 124.5,55.5C 124.5,56.1667 124.5,56.8333 124.5,57.5C 123.514,53.03 123.181,48.3633 123.5,43.5C 127.5,43.5 131.5,43.5 135.5,43.5 Z"/></g>
<g><path style="opacity:0.748" fill="#a8d992" d="M 198.5,9.5 C 198.5,29.1667 198.5,48.8333 198.5,68.5C 202.167,68.5 205.833,68.5 209.5,68.5C 209.5,68.8333 209.5,69.1667 209.5,69.5C 205.922,70.5887 202.255,70.7554 198.5,70C 197.944,69.6174 197.611,69.1174 197.5,68.5C 197.17,48.6596 197.503,28.9929 198.5,9.5 Z"/></g>
<g><path style="opacity:0.648" fill="#abd798" d="M 168.5,9.5 C 168.833,9.5 169.167,9.5 169.5,9.5C 169.5,29.1667 169.5,48.8333 169.5,68.5C 173.167,68.5 176.833,68.5 180.5,68.5C 180.5,59.5 180.5,50.5 180.5,41.5C 184.167,41.5 187.833,41.5 191.5,41.5C 191.5,37.8333 191.5,34.1667 191.5,30.5C 192.482,33.9619 192.815,37.6286 192.5,41.5C 192.5,42.1667 192.167,42.5 191.5,42.5C 188.167,42.5 184.833,42.5 181.5,42.5C 181.5,51.1667 181.5,59.8333 181.5,68.5C 180.223,69.8976 178.557,70.5643 176.5,70.5C 173.249,70.4818 170.583,69.4818 168.5,67.5C 168.5,48.1667 168.5,28.8333 168.5,9.5 Z"/></g>
<g><path style="opacity:0.05" fill="#ded7e1" d="M 191.5,42.5 C 188.713,43.4767 185.713,43.81 182.5,43.5C 182.826,52.0168 182.493,60.3501 181.5,68.5C 181.5,59.8333 181.5,51.1667 181.5,42.5C 184.833,42.5 188.167,42.5 191.5,42.5 Z"/></g>
<g><path style="opacity:0.326" fill="#b7c2b2" d="M 230.5,54.5 C 230.5,55.1667 230.5,55.8333 230.5,56.5C 229.778,56.9175 229.278,57.5842 229,58.5C 228.823,62.3563 228.323,66.023 227.5,69.5C 227.5,69.1667 227.5,68.8333 227.5,68.5C 227.334,59.1607 227.5,49.8274 228,40.5C 229.286,45.0959 230.119,49.7626 230.5,54.5 Z"/></g>
<g><path style="opacity:0.208" fill="#bbd1b0" d="M 230.5,54.5 C 231.99,58.942 232.99,63.6086 233.5,68.5C 237.5,68.5 241.5,68.5 245.5,68.5C 245.5,68.8333 245.5,69.1667 245.5,69.5C 241.53,70.8274 237.53,70.8274 233.5,69.5C 231.712,65.3478 230.712,61.0144 230.5,56.5C 230.5,55.8333 230.5,55.1667 230.5,54.5 Z"/></g>
<g><path style="opacity:0.125" fill="#bfc5ca" d="M 306.5,65.5 C 306.5,66.1667 306.5,66.8333 306.5,67.5C 305.691,65.7078 305.191,63.7078 305,61.5C 303.301,60.5939 301.467,60.2606 299.5,60.5C 299.81,63.7131 299.477,66.7131 298.5,69.5C 298.5,69.1667 298.5,68.8333 298.5,68.5C 298.5,65.5 298.5,62.5 298.5,59.5C 301.167,59.5 303.833,59.5 306.5,59.5C 306.5,61.5 306.5,63.5 306.5,65.5 Z"/></g>
<g><path style="opacity:0.102" fill="#ded9d6" d="M 124.5,55.5 C 128.735,56.436 133.069,56.7693 137.5,56.5C 137.182,61.0323 137.515,65.3656 138.5,69.5C 135.167,70.8333 131.833,70.8333 128.5,69.5C 131.385,69.8064 134.052,69.4731 136.5,68.5C 136.5,64.8333 136.5,61.1667 136.5,57.5C 132.5,57.5 128.5,57.5 124.5,57.5C 124.5,56.8333 124.5,56.1667 124.5,55.5 Z"/></g>
<g><path style="opacity:0.043" fill="#decfc7" d="M 74.5,62.5 C 74.573,64.0269 73.9063,65.0269 72.5,65.5C 72.427,63.9731 73.0937,62.9731 74.5,62.5 Z"/></g>
<g><path style="opacity:0.047" fill="#dfc8bb" d="M 49.5,64.5 C 50.8333,65.1667 51.8333,66.1667 52.5,67.5C 50.5,67.5 49.5,66.5 49.5,64.5 Z"/></g>
<g><path style="opacity:0.463" fill="#a6cce4" d="M 287.5,57.5 C 287.5,61.1667 287.5,64.8333 287.5,68.5C 291.167,68.5 294.833,68.5 298.5,68.5C 298.5,68.8333 298.5,69.1667 298.5,69.5C 295.272,69.2994 292.105,69.6328 289,70.5C 287.566,70.0696 286.399,69.2362 285.5,68C 286.135,64.3973 286.802,60.8973 287.5,57.5 Z"/></g>
<g><path style="opacity:0.519" fill="#e0c7b9" d="M 10.5,15.5 C 10.5,33.1667 10.5,50.8333 10.5,68.5C 14.5,68.5 18.5,68.5 22.5,68.5C 22.5,59.8333 22.5,51.1667 22.5,42.5C 22.8333,42.5 23.1667,42.5 23.5,42.5C 23.6664,51.5062 23.4998,60.5062 23,69.5C 18.5467,70.6759 14.0467,70.6759 9.5,69.5C 9.16988,51.3256 9.50322,33.3256 10.5,15.5 Z"/></g>
<g><path style="opacity:0.467" fill="#e9b99e" d="M 111.5,9.5 C 111.833,9.5 112.167,9.5 112.5,9.5C 112.5,29.1667 112.5,48.8333 112.5,68.5C 120.5,68.5 128.5,68.5 136.5,68.5C 134.052,69.4731 131.385,69.8064 128.5,69.5C 122.5,69.5 116.5,69.5 110.5,69.5C 110.17,49.3264 110.503,29.3264 111.5,9.5 Z"/></g>
<g><path style="opacity:0.525" fill="#acd0e7" d="M 318.5,64.5 C 319.451,65.9187 319.784,67.5853 319.5,69.5C 316.275,69.5733 312.942,69.9067 309.5,70.5C 307.484,70.4841 306.484,69.4841 306.5,67.5C 306.5,66.8333 306.5,66.1667 306.5,65.5C 307.404,66.209 307.737,67.209 307.5,68.5C 311.167,68.5 314.833,68.5 318.5,68.5C 318.5,67.1667 318.5,65.8333 318.5,64.5 Z"/></g>
<g><path style="opacity:0.086" fill="#d6cbc5" d="M 52.5,67.5 C 57.0068,69.1126 61.6734,69.7793 66.5,69.5C 63.3601,70.6408 60.0267,70.8075 56.5,70C 54.6803,69.7996 53.347,68.9663 52.5,67.5 Z"/></g>
<g><path style="opacity:0.004" fill="#fefefe" d="M 22.5,85.5 C 21.8333,85.5 21.1667,85.5 20.5,85.5C 19.7375,84.7321 18.7375,84.2321 17.5,84C 18.3333,83.8333 19.1667,83.6667 20,83.5C 21.3756,83.6842 22.2089,84.3509 22.5,85.5 Z"/></g>
<g><path style="opacity:0.004" fill="#fdfefd" d="M 40.5,84.5 C 40.8966,83.475 41.5632,83.3083 42.5,84C 41.9056,84.4643 41.2389,84.631 40.5,84.5 Z"/></g>
<g><path style="opacity:0.004" fill="#fdfefd" d="M 71.5,84.5 C 72.2506,83.4265 73.2506,83.2599 74.5,84C 73.552,84.4828 72.552,84.6495 71.5,84.5 Z"/></g>
<g><path style="opacity:0.004" fill="#fdfefd" d="M 23.5,84.5 C 24.8333,85.1667 24.8333,85.1667 23.5,84.5 Z"/></g>
<g><path style="opacity:0.012" fill="#fcfefb" d="M 44.5,85.5 C 45.8333,86.1667 45.8333,86.1667 44.5,85.5 Z"/></g>
<g><path style="opacity:0.008" fill="#f0faeb" d="M 69.5,89.5 C 69.1667,89.5 68.8333,89.5 68.5,89.5C 68.1667,88.1667 67.8333,88.1667 67.5,89.5C 66.0937,89.0269 65.427,88.0269 65.5,86.5C 66.8804,87.7065 68.0471,87.3731 69,85.5C 69.49,86.7932 69.6567,88.1266 69.5,89.5 Z"/></g>
<g><path style="opacity:0.015" fill="#fcfefc" d="M 71.5,85.5 C 71.5,87.8333 71.5,90.1667 71.5,92.5C 71.1667,92.5 70.8333,92.5 70.5,92.5C 70.6716,91.5084 70.3382,90.8417 69.5,90.5C 69.5,90.1667 69.5,89.8333 69.5,89.5C 70.1667,88.1667 70.8333,86.8333 71.5,85.5 Z"/></g>
<g><path style="opacity:0.008" fill="#fcfefc" d="M 76.5,85.5 C 77.8333,86.1667 77.8333,86.1667 76.5,85.5 Z"/></g>
<g><path style="opacity:0.004" fill="#effaea" d="M 103.5,87.5 C 102.508,87.6716 101.842,87.3382 101.5,86.5C 102.925,84.9689 103.591,85.3023 103.5,87.5 Z"/></g>
<g><path style="opacity:0.004" fill="#f7dec3" d="M 234.5,85.5 C 237.621,86.2876 239.288,88.2876 239.5,91.5C 239.768,93.099 239.434,94.4324 238.5,95.5C 238.662,93.4727 238.495,91.4727 238,89.5C 236.624,88.2949 235.458,86.9616 234.5,85.5 Z"/></g>
<g><path style="opacity:0.673" fill="#ffcaa9" d="M 265.5,85.5 C 265.5,85.8333 265.5,86.1667 265.5,86.5C 262.167,86.5 258.833,86.5 255.5,86.5C 255.5,86.1667 255.5,85.8333 255.5,85.5C 258.833,84.1667 262.167,84.1667 265.5,85.5 Z"/></g>
<g><path style="opacity:0.681" fill="#bdeba7" d="M 20.5,85.5 C 21.1667,85.5 21.8333,85.5 22.5,85.5C 22.8333,85.5 23.1667,85.5 23.5,85.5C 23.5,86.1667 23.5,86.8333 23.5,87.5C 21.5,88.8333 19.5,90.1667 17.5,91.5C 16.596,90.791 16.2627,89.791 16.5,88.5C 18.604,88.7989 20.604,88.4656 22.5,87.5C 19.9135,86.52 17.2469,86.1866 14.5,86.5C 14.1734,91.2137 14.5067,95.8804 15.5,100.5C 16.4656,98.604 16.7989,96.604 16.5,94.5C 18.1667,94.5 19.8333,94.5 21.5,94.5C 21.5,93.5 21.5,92.5 21.5,91.5C 22.1667,91.5 22.5,91.8333 22.5,92.5C 22.5,93.5 22.5,94.5 22.5,95.5C 20.8333,95.5 19.1667,95.5 17.5,95.5C 17.5,97.5 17.5,99.5 17.5,101.5C 16.5,101.5 15.5,101.5 14.5,101.5C 13.8826,101.389 13.3826,101.056 13,100.5C 12.3333,95.1667 12.3333,89.8333 13,84.5C 15.3806,85.435 17.8806,85.7683 20.5,85.5 Z"/></g>
<g><path style="opacity:0.641" fill="#bceaa6" d="M 43.5,86.5 C 43.8195,91.3633 43.4861,96.03 42.5,100.5C 41.8333,81.8333 41.1667,81.8333 40.5,100.5C 40.1667,100.5 39.8333,100.5 39.5,100.5C 38.3493,95.3497 38.1826,90.0164 39,84.5C 40.6225,85.0989 42.1225,85.7656 43.5,86.5 Z"/></g>
<g><path style="opacity:0.937" fill="#79d751" d="M 42.5,100.5 C 41.8333,100.5 41.1667,100.5 40.5,100.5C 41.1667,81.8333 41.8333,81.8333 42.5,100.5 Z"/></g>
<g><path style="opacity:0.073" fill="#effaea" d="M 43.5,86.5 C 43.8333,86.5 44.1667,86.5 44.5,86.5C 44.5,91.8333 44.5,97.1667 44.5,102.5C 42.302,102.88 40.6354,102.213 39.5,100.5C 39.8333,100.5 40.1667,100.5 40.5,100.5C 41.1667,100.5 41.8333,100.5 42.5,100.5C 43.4861,96.03 43.8195,91.3633 43.5,86.5 Z"/></g>
<g><path style="opacity:0.058" fill="#f7fcf4" d="M 75.5,86.5 C 75.8333,86.5 76.1667,86.5 76.5,86.5C 76.5,91.8333 76.5,97.1667 76.5,102.5C 74.901,102.768 73.5676,102.434 72.5,101.5C 73.5,101.5 74.5,101.5 75.5,101.5C 75.5,96.5 75.5,91.5 75.5,86.5 Z"/></g>
<g><path style="opacity:0.518" fill="#fecfaf" d="M 197.5,85.5 C 197.5,87.5 197.5,89.5 197.5,91.5C 196.837,89.9581 196.17,88.2914 195.5,86.5C 194.507,91.1196 194.173,95.7863 194.5,100.5C 194.167,100.5 193.833,100.5 193.5,100.5C 192.223,95.6098 192.39,90.6098 194,85.5C 195.292,84.2089 196.458,84.2089 197.5,85.5 Z"/></g>
<g><path style="opacity:0.985" fill="#ffa973" d="M 291.5,85.5 C 291.5,86.5 291.5,87.5 291.5,88.5C 289.5,88.5 287.5,88.5 285.5,88.5C 285.263,89.791 285.596,90.791 286.5,91.5C 287.5,91.5 288.5,91.5 289.5,91.5C 289.833,91.5 290.167,91.5 290.5,91.5C 290.5,92.5 290.5,93.5 290.5,94.5C 288.833,94.5 287.167,94.5 285.5,94.5C 285.263,95.791 285.596,96.791 286.5,97.5C 288.167,97.5 289.833,97.5 291.5,97.5C 291.5,98.5 291.5,99.5 291.5,100.5C 288.5,100.5 285.5,100.5 282.5,100.5C 281.35,95.6842 281.184,90.6842 282,85.5C 285.269,84.1816 288.435,84.1816 291.5,85.5 Z"/></g>
<g><path style="opacity:0.905" fill="#7cd855" d="M 17.5,91.5 C 17.8333,91.5 18.1667,91.5 18.5,91.5C 19.1667,91.5 19.8333,91.5 20.5,91.5C 20.8333,91.5 21.1667,91.5 21.5,91.5C 21.5,92.5 21.5,93.5 21.5,94.5C 19.8333,94.5 18.1667,94.5 16.5,94.5C 16.7989,96.604 16.4656,98.604 15.5,100.5C 14.5067,95.8804 14.1734,91.2137 14.5,86.5C 17.2469,86.1866 19.9135,86.52 22.5,87.5C 20.604,88.4656 18.604,88.7989 16.5,88.5C 16.2627,89.791 16.596,90.791 17.5,91.5 Z"/></g>
<g><path style="opacity:0.004" fill="#fdfefd" d="M 45.5,88.5 C 46.8333,89.1667 46.8333,89.1667 45.5,88.5 Z"/></g>
<g><path style="opacity:0.405" fill="#c5edb3" d="M 65.5,86.5 C 64.1667,86.5 62.8333,86.5 61.5,86.5C 61.5,91.1667 61.5,95.8333 61.5,100.5C 62.5,100.5 63.5,100.5 64.5,100.5C 64.1583,101.338 63.4916,101.672 62.5,101.5C 60.5539,96.6042 59.8872,91.2709 60.5,85.5C 62.4147,85.2155 64.0813,85.5489 65.5,86.5 Z"/></g>
<g><path style="opacity:0.429" fill="#c1ecae" d="M 101.5,86.5 C 98.8333,86.5 96.1667,86.5 93.5,86.5C 93.5,91.1667 93.5,95.8333 93.5,100.5C 93.1667,100.5 92.8333,100.5 92.5,100.5C 92.5,95.5 92.5,90.5 92.5,85.5C 95.7131,85.19 98.7131,85.5233 101.5,86.5 Z"/></g>
<g><path style="opacity:0.007" fill="#f4fbf1" d="M 103.5,87.5 C 106.519,87.9723 107.519,89.4723 106.5,92C 109.003,93.5494 109.003,95.2161 106.5,97C 107.712,98.1068 107.379,98.6068 105.5,98.5C 105.5,97.5 105.5,96.5 105.5,95.5C 105.713,92.5491 105.046,89.8825 103.5,87.5 Z"/></g>
<g><path style="opacity:0.29" fill="#f1e9d1" d="M 255.5,85.5 C 255.5,85.8333 255.5,86.1667 255.5,86.5C 255.821,88.0481 256.821,88.7148 258.5,88.5C 258.5,89.5 258.5,90.5 258.5,91.5C 254.804,90.6248 253.804,88.6248 255.5,85.5 Z"/></g>
<g><path style="opacity:1" fill="#fa9550" d="M 255.5,86.5 C 258.833,86.5 262.167,86.5 265.5,86.5C 265.179,88.0481 264.179,88.7148 262.5,88.5C 262.5,92.5 262.5,96.5 262.5,100.5C 261.5,100.5 260.5,100.5 259.5,100.5C 259.817,96.2984 259.483,92.2984 258.5,88.5C 256.821,88.7148 255.821,88.0481 255.5,86.5 Z"/></g>
<g><path style="opacity:0.416" fill="#d8e4b5" d="M 291.5,85.5 C 292.833,86.8333 292.833,88.1667 291.5,89.5C 289.219,89.0773 287.552,89.744 286.5,91.5C 285.596,90.791 285.263,89.791 285.5,88.5C 287.5,88.5 289.5,88.5 291.5,88.5C 291.5,87.5 291.5,86.5 291.5,85.5 Z"/></g>
<g><path style="opacity:0.42" fill="#ffd5bc" d="M 309.5,85.5 C 309.5,90.5 309.5,95.5 309.5,100.5C 309.167,100.5 308.833,100.5 308.5,100.5C 308.728,96.6095 308.394,92.7762 307.5,89C 307.808,87.5405 308.475,86.3739 309.5,85.5 Z"/></g>
<g><path style="opacity:1" fill="#fb9553" d="M 309.5,85.5 C 310.5,85.5 311.5,85.5 312.5,85.5C 312.5,89.5 312.5,93.5 312.5,97.5C 313.833,97.5 315.167,97.5 316.5,97.5C 317.167,97.5 317.5,97.8333 317.5,98.5C 315.365,100.369 312.698,101.036 309.5,100.5C 309.5,95.5 309.5,90.5 309.5,85.5 Z"/></g>
<g><path style="opacity:0.176" fill="#ecf8e5" d="M 309.5,85.5 C 310.568,84.5655 311.901,84.2322 313.5,84.5C 313.5,88.5 313.5,92.5 313.5,96.5C 314.791,96.2627 315.791,96.596 316.5,97.5C 315.167,97.5 313.833,97.5 312.5,97.5C 312.5,93.5 312.5,89.5 312.5,85.5C 311.5,85.5 310.5,85.5 309.5,85.5 Z"/></g>
<g><path style="opacity:0.047" fill="#f9fdf7" d="M 23.5,87.5 C 24.404,88.209 24.7373,89.209 24.5,90.5C 23.209,90.2627 22.209,90.596 21.5,91.5C 21.1667,91.5 20.8333,91.5 20.5,91.5C 19.8333,90.1667 19.1667,90.1667 18.5,91.5C 18.1667,91.5 17.8333,91.5 17.5,91.5C 19.5,90.1667 21.5,88.8333 23.5,87.5 Z"/></g>
<g><path style="opacity:0.922" fill="#7ed858" d="M 65.5,86.5 C 65.427,88.0269 66.0937,89.0269 67.5,89.5C 67.427,91.0269 68.0937,92.0269 69.5,92.5C 68.7095,93.4013 67.7095,94.0679 66.5,94.5C 66.5,94.1667 66.5,93.8333 66.5,93.5C 66.2172,92.7109 65.7172,92.0442 65,91.5C 64.502,94.4816 64.3354,97.4816 64.5,100.5C 63.5,100.5 62.5,100.5 61.5,100.5C 61.5,95.8333 61.5,91.1667 61.5,86.5C 62.8333,86.5 64.1667,86.5 65.5,86.5 Z"/></g>
<g><path style="opacity:0.941" fill="#81d95b" d="M 101.5,86.5 C 101.842,87.3382 102.508,87.6716 103.5,87.5C 105.046,89.8825 105.713,92.5491 105.5,95.5C 102.767,99.8584 98.7674,101.525 93.5,100.5C 93.5,95.8333 93.5,91.1667 93.5,86.5C 96.1667,86.5 98.8333,86.5 101.5,86.5 Z M 97.5,91.5 C 98.2344,92.8775 98.9011,94.3775 99.5,96C 99.1667,96.1667 98.8333,96.3333 98.5,96.5C 97.5481,94.9547 97.2148,93.288 97.5,91.5 Z"/></g>
<g><path style="opacity:0.013" fill="#f6fef9" d="M 291.5,89.5 C 290.833,90.1667 290.167,90.8333 289.5,91.5C 288.5,91.5 287.5,91.5 286.5,91.5C 287.552,89.744 289.219,89.0773 291.5,89.5 Z"/></g>
<g><path style="opacity:0.749" fill="#c0ebab" d="M 67.5,89.5 C 67.8333,89.5 68.1667,89.5 68.5,89.5C 68.5,90.1667 68.8333,90.5 69.5,90.5C 69.5,91.1667 69.5,91.8333 69.5,92.5C 68.0937,92.0269 67.427,91.0269 67.5,89.5 Z"/></g>
<g><path style="opacity:0.011" fill="#effaea" d="M 100.5,90.5 C 101.622,92.2884 101.789,94.2884 101,96.5C 99.6439,97.3802 98.1439,97.7135 96.5,97.5C 96.5,94.5 96.5,91.5 96.5,88.5C 98.3797,88.2291 99.713,88.8958 100.5,90.5 Z M 97.5,91.5 C 97.2148,93.288 97.5481,94.9547 98.5,96.5C 98.8333,96.3333 99.1667,96.1667 99.5,96C 98.9011,94.3775 98.2344,92.8775 97.5,91.5 Z"/></g>
<g><path style="opacity:0.011" fill="#f8f3e5" d="M 197.5,85.5 C 198.451,86.9187 198.784,88.5853 198.5,90.5C 199.833,90.5 201.167,90.5 202.5,90.5C 202.216,88.5853 202.549,86.9187 203.5,85.5C 203.5,87.5 203.5,89.5 203.5,91.5C 201.5,91.5 199.5,91.5 197.5,91.5C 197.5,89.5 197.5,87.5 197.5,85.5 Z"/></g>
<g><path style="opacity:0.106" fill="#e4f5da" d="M 265.5,85.5 C 268.284,87.5528 267.951,89.2195 264.5,90.5C 263.833,94.1667 263.167,97.8333 262.5,101.5C 260.703,102.932 259.37,102.599 258.5,100.5C 258.833,100.5 259.167,100.5 259.5,100.5C 260.5,100.5 261.5,100.5 262.5,100.5C 262.5,96.5 262.5,92.5 262.5,88.5C 264.179,88.7148 265.179,88.0481 265.5,86.5C 265.5,86.1667 265.5,85.8333 265.5,85.5 Z"/></g>
<g><path style="opacity:0.804" fill="#92d4e8" d="M 151.5,86.5 C 153.065,88.5093 154.065,90.8427 154.5,93.5C 152.166,91.8243 151.166,89.491 151.5,86.5 Z"/></g>
<g><path style="opacity:0.966" fill="#fd9654" d="M 206.5,85.5 C 206.5,90.5 206.5,95.5 206.5,100.5C 205.5,100.5 204.5,100.5 203.5,100.5C 203.5,98.5 203.5,96.5 203.5,94.5C 201.5,94.5 199.5,94.5 197.5,94.5C 197.5,96.5 197.5,98.5 197.5,100.5C 196.5,100.5 195.5,100.5 194.5,100.5C 194.173,95.7863 194.507,91.1196 195.5,86.5C 196.17,88.2914 196.837,89.9581 197.5,91.5C 199.5,91.5 201.5,91.5 203.5,91.5C 203.5,89.5 203.5,87.5 203.5,85.5C 204.5,84.1667 205.5,84.1667 206.5,85.5 Z"/></g>
<g><path style="opacity:0.624" fill="#ffc5a0" d="M 258.5,88.5 C 259.483,92.2984 259.817,96.2984 259.5,100.5C 259.167,100.5 258.833,100.5 258.5,100.5C 257.576,97.5533 257.576,94.5533 258.5,91.5C 258.5,90.5 258.5,89.5 258.5,88.5 Z"/></g>
<g><path style="opacity:0.925" fill="#a3e386" d="M 71.5,85.5 C 73.099,85.2322 74.4324,85.5655 75.5,86.5C 75.5,91.5 75.5,96.5 75.5,101.5C 74.5,101.5 73.5,101.5 72.5,101.5C 71.8333,101.5 71.5,101.167 71.5,100.5C 72.5,100.5 73.5,100.5 74.5,100.5C 74.8266,95.7863 74.4933,91.1196 73.5,86.5C 72.5159,89.4281 72.1826,92.4281 72.5,95.5C 71.325,95.281 70.325,95.6143 69.5,96.5C 70.1272,97.4168 70.4606,98.4168 70.5,99.5C 69.8333,99.1667 69.1667,98.8333 68.5,98.5C 68.6716,97.5084 68.3382,96.8417 67.5,96.5C 67.5,95.8333 67.1667,95.5 66.5,95.5C 66.5,95.1667 66.5,94.8333 66.5,94.5C 67.7095,94.0679 68.7095,93.4013 69.5,92.5C 69.8333,92.5 70.1667,92.5 70.5,92.5C 70.8333,93.8333 71.1667,93.8333 71.5,92.5C 71.5,90.1667 71.5,87.8333 71.5,85.5 Z"/></g>
<g><path style="opacity:0.988" fill="#ff9e61" d="M 234.5,85.5 C 235.458,86.9616 236.624,88.2949 238,89.5C 238.495,91.4727 238.662,93.4727 238.5,95.5C 236.648,99.7604 233.314,101.427 228.5,100.5C 228.027,99.0937 227.027,98.427 225.5,98.5C 222.107,92.7668 223.44,88.2668 229.5,85C 231.387,84.2204 233.054,84.3871 234.5,85.5 Z M 234.5,90.5 C 235.234,91.7079 235.567,93.0413 235.5,94.5C 233.417,96.6044 231.083,96.9377 228.5,95.5C 228.651,91.686 230.651,90.0193 234.5,90.5 Z"/></g>
<g><path style="opacity:0.204" fill="#dfecc6" d="M 234.5,90.5 C 230.651,90.0193 228.651,91.686 228.5,95.5C 226.5,90.6574 228.167,88.4907 233.5,89C 234.056,89.3826 234.389,89.8826 234.5,90.5 Z"/></g>
<g><path style="opacity:0.409" fill="#d5e6b5" d="M 290.5,91.5 C 291.434,92.5676 291.768,93.901 291.5,95.5C 289.219,95.0773 287.552,95.744 286.5,97.5C 285.596,96.791 285.263,95.791 285.5,94.5C 287.167,94.5 288.833,94.5 290.5,94.5C 290.5,93.5 290.5,92.5 290.5,91.5 Z"/></g>
<g><path style="opacity:0.031" fill="#f8fcf7" d="M 22.5,92.5 C 23.4345,93.5676 23.7678,94.901 23.5,96.5C 21.8333,96.5 20.1667,96.5 18.5,96.5C 18.5,98.5 18.5,100.5 18.5,102.5C 16.901,102.768 15.5676,102.434 14.5,101.5C 15.5,101.5 16.5,101.5 17.5,101.5C 17.5,99.5 17.5,97.5 17.5,95.5C 19.1667,95.5 20.8333,95.5 22.5,95.5C 22.5,94.5 22.5,93.5 22.5,92.5 Z"/></g>
<g><path style="opacity:0.256" fill="#e2f6da" d="M 66.5,93.5 C 65.1667,94.1667 65.1667,94.8333 66.5,95.5C 66.5,95.8333 66.5,96.1667 66.5,96.5C 65.5386,98.2646 65.2053,100.265 65.5,102.5C 64.209,102.737 63.209,102.404 62.5,101.5C 63.4916,101.672 64.1583,101.338 64.5,100.5C 64.3354,97.4816 64.502,94.4816 65,91.5C 65.7172,92.0442 66.2172,92.7109 66.5,93.5 Z"/></g>
<g><path style="opacity:0.941" fill="#7ed857" d="M 71.5,100.5 C 71.1667,100.5 70.8333,100.5 70.5,100.5C 70.5,100.167 70.5,99.8333 70.5,99.5C 70.4606,98.4168 70.1272,97.4168 69.5,96.5C 70.325,95.6143 71.325,95.281 72.5,95.5C 72.1826,92.4281 72.5159,89.4281 73.5,86.5C 74.4933,91.1196 74.8266,95.7863 74.5,100.5C 73.5,100.5 72.5,100.5 71.5,100.5 Z"/></g>
<g><path style="opacity:0.949" fill="#4cb9fd" d="M 151.5,86.5 C 151.166,89.491 152.166,91.8243 154.5,93.5C 154.5,93.8333 154.5,94.1667 154.5,94.5C 154.357,96.2624 154.691,97.9291 155.5,99.5C 154.675,100.386 153.675,100.719 152.5,100.5C 152.5,100.167 152.5,99.8333 152.5,99.5C 152.03,98.3065 151.03,97.6399 149.5,97.5C 147.069,97.4367 145.235,98.4367 144,100.5C 142.97,100.164 142.47,99.4972 142.5,98.5C 143.628,94.4496 144.961,90.4496 146.5,86.5C 148.299,85.2121 149.965,85.2121 151.5,86.5 Z"/></g>
<g><path style="opacity:0.447" fill="#b9e5e4" d="M 148.5,90.5 C 150.213,91.6354 150.88,93.302 150.5,95.5C 149.5,95.5 148.5,95.5 147.5,95.5C 147.629,93.7839 147.962,92.1172 148.5,90.5 Z"/></g>
<g><path style="opacity:0.013" fill="#fdfefc" d="M 66.5,96.5 C 66.8333,96.5 67.1667,96.5 67.5,96.5C 67.3284,97.4916 67.6618,98.1583 68.5,98.5C 68.44,99.0431 68.1067,99.3764 67.5,99.5C 66.6143,98.675 66.281,97.675 66.5,96.5 Z"/></g>
<g><path style="opacity:0.157" fill="#e5f0d3" d="M 206.5,85.5 C 207.488,90.6405 207.821,95.9738 207.5,101.5C 205.833,101.5 204.167,101.5 202.5,101.5C 202.662,99.4727 202.495,97.4727 202,95.5C 200.989,96.3366 199.822,96.67 198.5,96.5C 198.739,98.4672 198.406,100.301 197.5,102C 195.648,102.773 194.314,102.273 193.5,100.5C 193.833,100.5 194.167,100.5 194.5,100.5C 195.5,100.5 196.5,100.5 197.5,100.5C 197.5,98.5 197.5,96.5 197.5,94.5C 199.5,94.5 201.5,94.5 203.5,94.5C 203.5,96.5 203.5,98.5 203.5,100.5C 204.5,100.5 205.5,100.5 206.5,100.5C 206.5,95.5 206.5,90.5 206.5,85.5 Z"/></g>
<g><path style="opacity:0.075" fill="#ffdfcb" d="M 235.5,94.5 C 235.315,96.8896 233.982,97.8896 231.5,97.5C 229.97,97.3601 228.97,96.6935 228.5,95.5C 231.083,96.9377 233.417,96.6044 235.5,94.5 Z"/></g>
<g><path style="opacity:0.013" fill="#fcfdfc" d="M 291.5,95.5 C 291.5,96.1667 291.5,96.8333 291.5,97.5C 289.833,97.5 288.167,97.5 286.5,97.5C 287.552,95.744 289.219,95.0773 291.5,95.5 Z"/></g>
<g><path style="opacity:0.004" fill="#fdfefc" d="M 19.5,97.5 C 20.8333,98.1667 20.8333,98.1667 19.5,97.5 Z"/></g>
<g><path style="opacity:0.082" fill="#daf1cb" d="M 239.5,91.5 C 241.051,97.5115 238.551,101.178 232,102.5C 230.541,102.192 229.374,101.525 228.5,100.5C 233.314,101.427 236.648,99.7604 238.5,95.5C 239.434,94.4324 239.768,93.099 239.5,91.5 Z"/></g>
<g><path style="opacity:0.804" fill="#a9dddf" d="M 154.5,94.5 C 155.864,96.22 156.864,98.22 157.5,100.5C 155.701,101.788 154.035,101.788 152.5,100.5C 153.675,100.719 154.675,100.386 155.5,99.5C 154.691,97.9291 154.357,96.2624 154.5,94.5 Z"/></g>
<g><path style="opacity:0.373" fill="#f3dfc2" d="M 225.5,98.5 C 227.027,98.427 228.027,99.0937 228.5,100.5C 226.973,100.573 225.973,99.9063 225.5,98.5 Z"/></g>
<g><path style="opacity:0.012" fill="#fcfefc" d="M 70.5,100.5 C 69.8333,101.167 69.8333,101.167 70.5,100.5 Z"/></g>
<g><path style="opacity:0.386" fill="#dcf4d2" d="M 105.5,95.5 C 105.5,96.5 105.5,97.5 105.5,98.5C 101.631,102.757 97.2978,103.424 92.5,100.5C 92.8333,100.5 93.1667,100.5 93.5,100.5C 98.7674,101.525 102.767,99.8584 105.5,95.5 Z"/></g>
<g><path style="opacity:0.29" fill="#c6ebd5" d="M 152.5,99.5 C 151.07,99.5792 149.736,99.2458 148.5,98.5C 146.929,101.093 144.596,102.093 141.5,101.5C 141.263,100.209 141.596,99.209 142.5,98.5C 142.47,99.4972 142.97,100.164 144,100.5C 145.235,98.4367 147.069,97.4367 149.5,97.5C 151.03,97.6399 152.03,98.3065 152.5,99.5 Z"/></g>
<g><path style="opacity:0.327" fill="#dcf1cd" d="M 291.5,97.5 C 292.434,98.5676 292.768,99.901 292.5,101.5C 289.934,101.344 287.434,101.678 285,102.5C 283.699,102.361 282.866,101.695 282.5,100.5C 285.5,100.5 288.5,100.5 291.5,100.5C 291.5,99.5 291.5,98.5 291.5,97.5 Z"/></g>
<g><path style="opacity:0.317" fill="#ddf1ce" d="M 317.5,98.5 C 318.404,99.209 318.737,100.209 318.5,101.5C 315.934,101.344 313.434,101.678 311,102.5C 309.699,102.361 308.866,101.695 308.5,100.5C 308.833,100.5 309.167,100.5 309.5,100.5C 312.698,101.036 315.365,100.369 317.5,98.5 Z"/></g>
<g><path style="opacity:0.004" fill="#fdfefd" d="M 65.5,102.5 C 66.8333,103.167 66.8333,103.167 65.5,102.5 Z"/></g>
</svg>
